<svg viewBox="0 0 4307.8 3286.8" xmlns="http://www.w3.org/2000/svg">
  <path
    d="M2153.901 3286.895C964.35 3286.895.003 3240.068.003 3182.31c0-15.414 68.96-30.08 192.689-43.308.396.133.807.227 1.227.28 81.668 12.082 163.334 14.974 245 16.467 33.521.68 67.04.932 100.562.932 48.144 0 96.29-.518 144.437-1.065l122.498-.721 122.498-.054h2694.954l122.495.042 61.247.559 61.278.973c8.073.094 16.147.148 24.25.148 32.739 0 65.477-.814 98.245-2.387 40.841-2.52 81.653-6.066 122.495-14.893.355-.068.71-.175 1.035-.293 123.856 13.225 192.881 27.906 192.881 43.32 0 57.758-964.346 104.585-2153.898 104.585"
    fill="#a3bee3" />
  <path
    d="M1866.207 3140.08h-374.614c-11.586 0-20.973-9.385-20.973-20.984 0-5.8 2.346-11.04 6.17-14.84a20.843 20.843 0 0114.818-6.147h401.477l-10.494 41.96-16.384.012"
    fill="#000072" />
  <path
    d="M888.548 2235.185c-25.44-4.307-49.558 12.84-53.865 38.292l-55.048 325.565 92.154 15.587 55.052-325.579c4.306-25.453-12.84-49.559-38.293-53.865"
    fill="#4089ff" />
  <path
    d="M926.947 2289.05l-9.066 53.625-92.171-15.586 9.066-53.625c4.294-25.44 28.4-42.572 53.839-38.28 25.493 4.32 42.639 28.427 38.332 53.866"
    fill="#ffce00" />
  <path
    d="M926.947 2289.05h.067zm-78.184 21.653l52.732 8.92 5.733-33.906c1.186-7.04-.427-14.106-4.56-19.933-4.147-5.813-10.32-9.68-17.386-10.866-7.04-1.2-14.107.426-19.933 4.56-5.813 4.133-9.667 10.28-10.853 17.32zm69.145 51.972c-1.107 0-2.24-.093-3.36-.28l-92.171-15.586c-10.897-1.84-18.233-12.16-16.392-23.053l9.066-53.625c2.968-17.573 12.605-32.933 27.125-43.253 14.533-10.32 32.213-14.386 49.772-11.4 17.586 2.974 32.973 12.6 43.306 27.12 10.333 14.533 14.386 32.2 11.413 49.785l-9.067 53.626c-1.653 9.773-10.12 16.666-19.692 16.666"
    fill="#000072" />
  <path
    d="M802.724 2582.643l52.74 8.92 39.319-232.555-52.732-8.92-39.327 232.555m69.126 51.972a18.77 18.77 0 01-3.333-.294l-92.18-15.586c-5.23-.88-9.895-3.8-12.967-8.12a19.998 19.998 0 01-3.417-14.92l45.987-271.992a20.027 20.027 0 018.135-12.973c4.32-3.067 9.71-4.28 14.923-3.414l92.17 15.587c10.894 1.84 18.227 12.16 16.387 23.052L891.57 2617.95a19.973 19.973 0 01-8.134 12.96 19.997 19.997 0 01-11.586 3.706"
    fill="#000072" />
  <path
    d="M979.746 2506.778c-1.107 0-2.227-.093-3.36-.28-10.893-1.84-18.226-12.16-16.386-23.053l10.16-60.065c4.68-27.653-14.027-53.959-41.68-58.638l-31.345-5.307c-10.893-1.84-18.226-12.16-16.387-23.053s12.2-18.2 23.053-16.386l31.346 5.307c49.412 8.36 82.798 55.345 74.452 104.744l-10.16 60.065c-1.653 9.773-10.12 16.666-19.693 16.666"
    fill="#000072" />
  <path d="M512.571 2727.706l152.89-32.4-99.107-467.681-152.89 32.4 99.106 467.68" fill="#d2e4ff" />
  <path
    d="M548.823 2251.851c-.188 0-.38.013-.573.053l-108.37 22.973a2.753 2.753 0 00-2.124 3.267L527.997 2704l113.767-24.12-90.245-425.842a2.763 2.763 0 00-2.696-2.187m-36.245 495.854a19.936 19.936 0 01-10.901-3.24 19.986 19.986 0 01-8.665-12.613l-94.39-445.415c-4.883-23.053 9.902-45.799 32.96-50.692l108.382-22.96c23.071-4.893 45.799 9.893 50.684 32.946l94.392 445.429c2.29 10.8-4.614 21.426-15.418 23.706l-152.903 32.4c-1.373.293-2.764.44-4.147.44"
    fill="#000072" />
  <path
    d="M468.785 2236.518l-57.709 12.24c-6.226 1.32-10.205 7.426-8.885 13.653 1.319 6.226 7.437 10.213 13.664 8.893l57.71-12.226c6.227-1.32 10.205-7.44 8.885-13.667s-7.437-10.213-13.665-8.893M488.612 2330.116l-57.71 12.226c-6.227 1.32-10.206 7.44-8.886 13.666s7.437 10.2 13.664 8.88l57.71-12.226c6.227-1.32 10.205-7.44 8.885-13.666s-7.437-10.2-13.663-8.88M508.438 2423.713l-57.71 12.227c-6.227 1.32-10.206 7.44-8.886 13.666s7.437 10.2 13.664 8.88l57.71-12.226c6.227-1.32 10.205-7.44 8.885-13.667-1.318-6.226-7.437-10.2-13.663-8.88M528.25 2517.178l-57.709 12.226c-6.227 1.32-10.205 7.44-8.886 13.666 1.32 6.227 7.437 10.213 13.665 8.894l57.71-12.227c6.227-1.32 10.204-7.44 8.886-13.666-1.32-6.227-7.438-10.213-13.665-8.893M548.077 2610.642l-57.71 12.24c-6.226 1.32-10.204 7.44-8.886 13.666 1.321 6.227 7.439 10.2 13.665 8.88l57.71-12.227c6.226-1.32 10.204-7.44 8.886-13.666-1.32-6.226-7.439-10.2-13.665-8.893M567.89 2704.24l-57.708 12.226c-6.228 1.32-10.207 7.44-8.887 13.666s7.437 10.2 13.664 8.88l57.71-12.226c6.227-1.32 10.204-7.44 8.886-13.667s-7.438-10.2-13.665-8.88"
    fill="#000072" />
  <path d="M460.506 3111.376H911.6v-443.082H460.506z" fill="#f91228" />
  <path
    d="M483.558 3088.323h404.99v-396.976h-404.99v396.976m428.043 46.106H460.506c-12.73 0-23.05-10.32-23.05-23.053v-443.082c0-12.733 10.32-23.053 23.05-23.053H911.6c12.733 0 23.053 10.32 23.053 23.053v443.082c0 12.733-10.32 23.053-23.053 23.053"
    fill="#000072" />
  <path
    d="M437.453 2755.305a48.313 48.313 0 01-7.628-26.133v-37.279c0-8.96 2.425-17.346 6.656-24.546v4.2c0 3.32.335 6.573.972 9.707v74.051"
    fill="#8ea6d4" />
  <path
    d="M888.548 3088.323h-404.99v-46.478H726.58c72.929 0 132.055-59.119 132.055-132.05 0-72.919-59.126-132.05-132.055-132.05h-243.02v-57.652c.482.013.965.026 1.45.026h402.097c.48 0 .96-.013 1.44-.026v368.23"
    fill="#ae0d3e" />
  <path
    d="M904.948 3108.203l-98.578-.04-122.497-.733c-48.184-.534-96.355-1.067-144.543-1.067-28.49 0-56.998.187-85.49.667v-65.185h29.698v46.478h404.99v-368.23c17.253-.507 32.24-10.013 40.44-23.986v33.119c0 17.866-9.627 33.426-24.027 41.839v337.138m-421.403-330.458h-5.206c-17.178 0-32.271-8.92-40.892-22.387v-74.051c4.403 21.693 23.274 38.119 46.098 38.786v57.652"
    fill="#000072" />
  <path
    d="M887.082 2585.843H484.985c-26.798 0-48.521 21.732-48.521 48.518v37.266c0 26.8 21.723 48.519 48.521 48.519h402.097c26.799 0 48.518-21.72 48.518-48.519v-37.266c0-26.786-21.719-48.518-48.518-48.518"
    fill="#f91228" />
  <path
    d="M935.614 2659.974v-25.613c0-23.452-16.653-43.025-38.786-47.532l2.187-12.866c21.04 5.293 36.625 24.36 36.625 47.052v37.28c0 .56-.013 1.12-.026 1.68m-499.134-26.627v-12.333c0-17.906 9.693-33.546 24.119-41.945l2.536 11.96c-15.532 7.852-26.271 23.812-26.655 42.318m325.138-47.505h-98.93l-2.83-13.36h104.019l-2.259 13.36"
    fill="#e6f7ff" />
  <path d="M856.416 2585.843h-35.133l-18.58-3.134 1.727-10.226h54.252l-2.266 13.36" fill="#a0c4ff" />
  <path
    d="M896.815 2586.776c-3.147-.64-6.4-.987-9.733-.987h-30.666l2.266-13.36h28.426c4.094 0 8.08.52 11.893 1.48l-2.186 12.867m-75.532-.987h-59.677l2.259-13.36h40.565l-1.728 10.227 18.581 3.133"
    fill="#8080b9" />
  <path d="M621.808 2585.843H502.933l-2.831-13.36h118.876l2.83 13.36" fill="#e9f2ff" />
  <path
    d="M463.146 2591.043l-2.536-11.96a48.228 48.228 0 0124.4-6.587h15.095l2.83 13.36h-17.934c-7.862 0-15.286 1.867-21.855 5.187m199.555-5.187h-40.889l-2.83-13.36h40.888l2.83 13.36"
    fill="#8080b9" />
  <path
    d="M934.547 2668.507c-4.666-21.893-24.146-38.319-47.425-38.319H484.998c-23.28 0-42.759 16.426-47.425 38.32-.75-3.28-1.095-6.734-1.095-10.254v-24.946c.384-18.506 11.124-34.466 26.656-42.319 6.569-3.32 13.993-5.186 21.855-5.186h402.097c3.333 0 6.586.346 9.733.986 22.133 4.507 38.785 24.08 38.785 47.532v25.613c-.093 2.933-.44 5.813-1.066 8.573"
    fill="#fc8994" />
  <path
    d="M484.998 2608.909c-14.045 0-25.471 11.426-25.471 25.48v37.252c0 14.04 11.426 25.466 25.471 25.466h402.11c14.04 0 25.466-11.427 25.466-25.466v-37.253c0-14.053-11.426-25.48-25.466-25.48zm402.11 134.303h-402.11c-39.464 0-71.57-32.106-71.57-71.571v-37.253c0-39.466 32.106-71.585 71.57-71.585h402.11c39.466 0 71.572 32.12 71.572 71.585v37.253c0 39.465-32.106 71.571-71.572 71.571"
    fill="#000072" />
  <path
    d="M699.833 2208.919c-25.81 0-46.733 20.92-46.733 46.732v330.192h93.467V2255.65c0-25.813-20.924-46.732-46.734-46.732"
    fill="#ffce00" />
  <path
    d="M746.592 2255.584v54.386h-93.484v-54.386c0-25.8 20.915-46.705 46.708-46.705 25.86 0 46.776 20.906 46.776 46.705"
    fill="#f91228" />
  <path
    d="M673.1 2289.983h53.488v-34.385c0-14.733-12.01-26.72-26.776-26.72-14.73 0-26.712 11.987-26.712 26.72zm73.488 40H653.1c-11.045 0-20-8.947-20-20v-54.385c0-36.786 29.928-66.719 66.71-66.719 36.82 0 66.776 29.933 66.776 66.719v54.385c0 11.053-8.954 20-20 20"
    fill="#000072" />
  <path
    d="M673.1 2565.843h53.488v-235.847H673.1zm73.488 40H653.1c-11.045 0-20-8.947-20-20v-275.847c0-11.04 8.955-20 20-20h93.487c11.045 0 20 8.96 20 20v275.847c0 11.053-8.955 20-20 20"
    fill="#000072" />
  <path
    d="M2676.242 3119.096h374.583c104.13 0 197.763-63.344 236.487-160.005 12.252-30.48 18.295-62.665 18.295-94.77 0-39.267-9.042-78.384-27.033-114.238l-207.672-414.009c-79.907-159.248-232.645-267.01-406.021-291.022l-366.267-5.081h-8.996l-366.266 5.081c-173.377 23.998-326.115 131.767-405.998 291.022l-207.686 417.36v365.165h478.548l888.036.492"
    fill="#4089ff" />
  <path d="M2922.813 2862.43h-18.473l6.394-55.676h85.84c-9.128 32.131-38.689 55.677-73.761 55.677" fill="#83b2ff" />
  <path
    d="M3050.925 3098.088H2902.05a61.78 61.78 0 003.309-20c0-20.546-10.065-38.786-25.512-50.067 3.658-3.919 6.197-8.893 7.176-14.452.093-.547.186-1.08.233-1.628l2.26-19.706h161.409c100.834 0 191.813-59.412 232.678-150.957a236.869 236.869 0 011.142 23c0 29.945-5.662 59.212-16.775 86.971-35.763 89.2-120.94 146.839-217.045 146.839m-1409.488-.508H1516.92c27.827-16.945 46.787-50.238 46.787-88.451 0-5.934-.455-11.761-1.335-17.413h91.706l2.306 20.213c.014.119.042.24.054.359a28.236 28.236 0 007.348 15.733c-15.442 11.281-25.495 29.521-25.495 50.068 0 6.812 1.107 13.359 3.147 19.491"
    fill="#2d60d4" />
  <path
    d="M3281.36 2824.284c-.837-1.788-1.699-3.562-2.583-5.333l-207.699-414.047a536.608 536.608 0 00-72.763-109.28c-99.322-115.532-245.267-180.49-397.59-182.61l-172.644-2.4c5.96-14.986 9.87-31.04 11.29-47.774l224.085 3.108c167.592 23.626 312.91 128.024 388.885 279.484l207.698 414c10.218 20.4 17.411 42.334 21.321 64.84m-1948.73-47.852c-.614-.135-1.226-.268-1.84-.4v-17.707l205.452-412.883c18.933-37.734 42.452-73.066 69.933-105.014 94.026-109.37 233.28-173.276 382.064-175.343l115.057-1.588a167.77 167.77 0 0011.476 47.773l-126.929 1.76c-152.346 2.12-298.268 67.08-397.59 182.61-28.265 32.868-52.784 69.468-72.758 109.28l-184.864 371.52"
    fill="#a0c4ff" />
  <path
    d="M3050.948 3140.057h-374.625c-11.566 0-20.964-9.387-20.964-20.988 0-11.585 9.398-20.971 20.964-20.971h374.625c96.083 0 181.283-57.64 217.016-146.84 11.142-27.758 16.795-57.025 16.795-86.971 0-36.226-8.598-72.48-24.827-104.838l-207.688-414.01c-75.967-151.452-221.28-255.86-388.877-279.485l-364.944-5.067-8.715.012-301.556 4.174c-148.767 2.065-288.036 65.971-382.046 175.344-27.48 31.946-51 67.279-69.933 105.012l-205.45 412.88v339.268h457.563c11.575 0 20.974 9.401 20.974 20.988s-9.399 20.985-20.974 20.985H1288.77v-391.09l209.877-421.783c20.493-40.852 45.933-79.066 75.638-113.613 101.866-118.479 252.514-187.703 413.304-189.93l311.143-4.2 367.865 5.108 1.272.171c181.824 25.174 339.551 138.226 421.9 302.405l207.712 414.01c19.127 38.174 29.256 80.931 29.256 123.652 0 35.319-6.666 69.839-19.81 102.586-42.14 105.198-142.628 173.184-255.953 173.184"
    fill="#000072" />
  <path
    d="M2271.337 2195.987h-.018c-81.586 0-147.703-66.135-147.703-147.703V1881.84h295.441v166.444c0 81.568-66.135 147.703-147.72 147.703"
    fill="#ffcfae" />
  <path
    d="M2144.424 1903.01v145.422c0 69.884 56.842 126.727 126.727 126.727 69.867 0 126.727-56.843 126.727-126.727V1903.01h-253.454m126.727 314.118c-93.016 0-168.698-75.681-168.698-168.697v-187.374h337.378v187.374c0 93.016-75.682 168.697-168.68 168.697"
    fill="#000072" />
  <path
    d="M1986.153 1515.901c0 87.204-70.675 157.897-157.879 157.897s-157.878-70.693-157.878-157.897 70.674-157.896 157.878-157.896 157.879 70.692 157.879 157.896"
    fill="#ffcfae" />
  <path
    d="M1807.551 1651.332c-65.726-9.995-116.263-66.888-116.263-135.364 0-2.614.069-5.194.205-7.774 24.586 42.422 68.34 72.32 119.407 77.873-2.478 21.254-3.69 37.331-3.69 48.71 0 5.57.119 11.088.341 16.555"
    fill="#b2909c" />
  <path
    d="M1828.196 1379.013c-75.493 0-136.914 61.42-136.914 136.914s61.42 136.895 136.914 136.895c75.474 0 136.913-61.403 136.913-136.895s-61.439-136.914-136.913-136.914m0 315.771c-98.632 0-178.858-80.244-178.858-178.857 0-98.632 80.226-178.876 178.858-178.876s178.857 80.244 178.857 178.876c0 98.613-80.225 178.857-178.857 178.857"
    fill="#000072" />
  <path
    d="M2764.241 1219.386c-84.226 26.042-176.616-9.183-243.774-44.41-56.097-29.427-94.616-58.856-96.007-52.548-5.797 26.02 26.669 56.654 47.864 69.872 6.169 3.826 7.931 10.76 6.1 16.534-1.485 4.87-5.45 8.905-11.433 9.856-93.225 14.494-280.995 234.846-305.321 334.123h-325.334s-164.065-371.76-104.17-606.374c17.987-70.429 75.229-121.54 180.628-85.085 0 0 44.548-66.3 119.498-132.647 121.888-107.834 324.012-215.714 544.99-38.078 236.169 189.834 320.65 184.06 320.65 184.06s67.483 282.478-133.69 344.697"
    fill="#94452f" />
  <path d="M2893.865 1139.269c0-.021-.021-.084-.021-.105.02-.041.063-.104.084-.146-.021.105-.063.188-.063.25"
    fill="#def4ff" />
  <path
    d="M2893.91 1163.304c.064-7.974.022-15.968-.146-23.962 0-.084.02-.168.063-.252 5.12-9.4 9.63-19.135 13.554-29.102-2.895 17.793-7.218 35.838-13.47 53.316"
    fill="#859bce" />
  <path
    d="M1849.579 1348.174c-7.39-111.64 7.115-207.304 15.248-249.914 15.543 13.504 31.987 25.832 49.136 37.122-24.401 45.882-42.08 95.959-52.134 148.172-3.842 19.815-7.977 41.688-12.25 64.62"
    fill="#673043" />
  <path
    d="M2965.366 1516.055c0 87.21-70.694 157.903-157.881 157.903-87.21 0-157.902-70.694-157.902-157.903 0-87.187 70.693-157.88 157.902-157.88 87.187 0 157.88 70.693 157.88 157.88"
    fill="#ffcfae" />
  <path
    d="M2828.27 1651.278c.213-5.473.34-10.966.34-16.544 0-11.39-1.209-27.468-3.67-48.699 51.053-5.557 94.81-35.484 119.393-77.883.148 2.545.212 5.154.212 7.762 0 68.488-50.544 125.374-116.274 135.364"
    fill="#b2909c" />
  <path
    d="M2807.623 1379.007c-75.502 0-136.92 61.418-136.92 136.898 0 75.5 61.418 136.919 136.92 136.919s136.898-61.418 136.898-136.92c0-75.48-61.397-136.897-136.898-136.897m0 315.764c-98.643 0-178.889-80.223-178.889-178.866 0-98.622 80.246-178.867 178.889-178.867 98.621 0 178.866 80.245 178.866 178.867 0 98.643-80.245 178.866-178.866 178.866"
    fill="#000072" />
  <path d="M2793.383 1552.767s122.843-306.34 62.927-540.952c-18-70.464-70.548-126.97-139.349-150.507l76.422 691.459"
    fill="#94452f" />
  <path
    d="M2793.315 1573.874c-2.607 0-5.235-.466-7.8-1.505-10.747-4.303-15.982-16.512-11.68-27.28 1.209-2.989 119.55-302.839 62.065-527.928-16.258-63.675-63.273-114.463-125.803-135.85-10.959-3.73-16.81-15.665-13.057-26.623 3.73-10.959 15.664-16.81 26.623-13.058 75.97 25.967 133.116 87.713 152.892 165.145 60.92 238.485-58.651 541.175-63.76 553.936-3.306 8.203-11.17 13.163-19.48 13.163"
    fill="#000072" />
  <path
    d="M2317.745 2039.997c-60.999 0-119.409-5.161-173.3-15.91v-44.982c53.159 10.32 111.301 15.517 173.3 15.517 27.518 0 54.267-1.018 80.16-3.053v45.303c-26.071 2.107-52.857 3.125-80.16 3.125"
    fill="#b2909c" />
  <path
    d="M2397.96 2036.809v-45.307a849.88 849.88 0 0020.99-1.907v45.29c-6.943.719-13.94 1.366-20.99 1.924m-253.462-12.788a674.37 674.37 0 01-20.972-4.515v-44.84a663.938 663.938 0 0020.972 4.39v44.965"
    fill="#000072" />
  <path
    d="M2803.674 1634.571c0 237.338-219.25 338.865-489.671 338.865-270.441 0-489.671-101.527-489.671-338.865 0-56.115 33.57-239.332 54.344-347.268 6.776-35.158 17.132-69.442 30.967-102.24 17.376-41.2 40.286-80.041 68.445-115.139 39.654-49.38 90.438-93.266 145.841-93.266h380.148c55.402 0 106.186 43.886 145.84 93.266 50.581 63.053 84.132 138.029 99.433 217.379.63 3.377 1.281 6.775 1.973 10.315 20.814 108.893 52.35 282.588 52.35 336.953"
    fill="#ffcfae" />
  <path
    d="M2011.458 1326.347c-13.891 7.246-28.327-8.785-19.617-21.812 18.79-28.064 49.257-57.967 95.21-62.866 78.54-8.353 110.489 29.396 95.66 54.268-6.045 10.137-27.2 8.654-51.772 7.152-15.356-.938-32.043-1.858-47.192.057-28.176 3.547-52.898 13.121-72.29 23.201M2616.825 1330.749c13.247 6.894 27.016-8.386 18.688-20.819-17.913-26.764-46.963-55.29-90.788-59.958-74.89-7.96-105.372 28.043-91.215 51.766 5.752 9.645 25.931 8.23 49.345 6.817 14.66-.89 30.58-1.782 45.007.058 26.88 3.37 50.468 12.51 68.963 22.136"
    fill="#000072" />
  <path
    d="M2317.685 1952.595c-69.48 0-133.674-6.778-190.807-20.174h-.02c-106.5-24.895-230.188-82.31-266.985-214.148 70.186 137.305 248.687 198.009 457.812 198.009 209.186 0 387.707-60.724 457.853-198.07-36.778 131.879-160.506 189.314-267.026 214.21-57.133 13.395-121.327 20.173-190.827 20.173"
    fill="#b2909c" />
  <path
    d="M2127.822 997.922c-50.302 0-98.165 46.428-129.466 85.375-47.392 59.075-80.312 131.085-95.173 208.24s-34.888 185.632-45.998 264.385c-5.288 37.43-7.974 63.996-7.974 78.898 0 192.375 151.113 268.054 277.853 297.674h.02c57.129 13.406 121.329 20.19 190.818 20.19s133.689-6.784 190.817-20.19c126.76-29.62 277.852-105.299 277.852-297.674 0-14.923-2.685-41.468-7.973-78.877-11.09-78.754-31.137-187.25-45.978-264.406-14.881-77.155-47.78-149.165-95.193-208.261-31.28-38.926-79.164-85.354-129.467-85.354h-380.138m190.08 996.743c-72.707 0-140.126-7.174-200.39-21.318-200.062-46.736-310.26-166.958-310.26-338.527 0-17.096 2.746-44.83 8.383-84.76 11.233-79.594 31.404-188.829 46.347-266.456 16.152-83.837 52.003-162.201 103.659-226.586 53.89-67.07 108.456-101.056 162.181-101.056h380.138c53.747 0 108.292 33.986 162.182 101.035 51.676 64.406 87.507 142.77 103.68 226.607 14.943 77.627 35.113 186.862 46.325 266.456 5.637 39.91 8.384 67.644 8.384 84.76 0 171.57-110.177 291.791-310.26 338.527-60.244 14.144-127.662 21.318-200.37 21.318"
    fill="#000072" />
  <path
    d="M2702.09 1304.276c-26.915 0-53.83-4.522-79.748-11.714-17.95-20.62-43.211-38.928-77.557-42.574-7.232-.777-14.065-1.135-20.46-1.135-2.55 0-5.04.04-7.471.16-10.718-5.699-20.779-11.376-30.023-16.775 6.276-5 10.718-12.133 12.432-20.48 1.992-9.762-.12-19.484-5.519-27.214 54.487 30.142 131.307 64.887 208.964 64.887 6.514 0 13.01-.26 19.504-.758a492.587 492.587 0 0110.26 42.833c.657 3.427 1.334 6.913 2.012 10.46-10.758 1.593-21.576 2.31-32.394 2.31m-343.538-2.928c-50.144 0-110.209-3.586-172.824-13.946 3.606-21.416-22.214-46.857-77.378-46.857-6.734 0-13.886.379-21.476 1.176-14.404 1.534-27.274 5.518-38.749 11.156-40.9-14.364-80.545-32.613-116.923-55.682a485.082 485.082 0 0118.787-40.163c130.888 71.54 291.86 89.848 405.774 89.848 33.629 0 63.154-1.593 86.602-3.884 7.292 8.148 15.758 15.42 23.468 20.938-13.148 9.463-18.01 21.874-14.563 32.732-23.269 2.69-55.224 4.682-92.718 4.682"
    fill="#b2909c" />
  <path
    d="M2185.887 1287.231c-45.489-7.547-92.308-18.652-137.61-34.533 11.48-5.637 24.346-9.626 38.748-11.162 7.584-.805 14.757-1.18 21.48-1.18 55.171 0 80.997 25.432 77.382 46.875M2451.43 1296.699c-3.443-10.868 1.404-23.274 14.56-32.737a139.023 139.023 0 006.406 4.308c11.29 7.002 7.809 24.312-5.328 26.351-4.655.731-9.887 1.424-15.638 2.078m171.07-4.097c-37.027-10.271-71.994-25.986-101.961-41.7l-3.52-1.847c2.423-.115 4.905-.173 7.463-.173 6.386 0 13.233.366 20.465 1.135 34.333 3.655 59.607 21.966 77.552 42.585M2734.76 1301.915c-.682-3.549-1.363-7.037-2.025-10.466a496.992 496.992 0 00-10.245-42.844 228.19 228.19 0 0021.071-2.627c3.83 13.674 7.077 27.528 9.784 41.502.642 3.368 1.283 6.776 1.965 10.305a203.694 203.694 0 01-20.55 4.13m-803.297-104.775a444.327 444.327 0 01-17.823-11.91 497.924 497.924 0 0118.345-38.714 511.601 511.601 0 0018.264 10.446 475.962 475.962 0 00-18.786 40.178"
    fill="#000072" />
  <path
    d="M1912.797 861.54s307.715-457.551 664.484-170.737c236.16 189.849 320.67 184.075 320.67 184.075s67.451 282.448-133.707 344.673c-84.224 26.054-176.584-9.162-243.748-44.402-56.117-29.443-94.626-58.862-96.01-52.563-5.798 26.055 26.65 56.69 47.838 69.908 11.285 7.039 7.802 24.313-5.32 26.365-93.22 14.507-418.185 20.662-597.035-144.206l42.828-213.112"
    fill="#94452f" />
  <path
    d="M2702.83 1249.275c-77.667 0-154.487-34.737-208.972-64.874 5.4 7.734 7.528 17.46 5.515 27.208-2.975 14.6-14.417 25.515-29.13 27.826-100.39 15.63-428.722 21.717-614.49-149.52-8.512-7.849-9.061-21.121-1.212-29.634 7.872-8.513 21.121-9.085 29.657-1.213 165.859 152.907 463.16 151.763 562.84 141.054-23.73-18.719-50.252-49.795-43.02-82.22a22.093 22.093 0 0112.86-15.515c12.677-5.355 21.602.091 51.167 18.146 59.429 36.316 183.068 111.923 290.002 78.81 155.722-48.146 132.083-249.658 122.335-305.424-37.758-6.934-132.93-39.589-316.226-186.935-89.223-71.717-182.908-100.733-278.469-86.18-204.578 31.076-353.983 250.094-355.47 252.29-6.454 9.612-19.498 12.175-29.131 5.721-9.612-6.476-12.152-19.496-5.676-29.13s161.351-236.546 383.961-270.368c107.69-16.362 212.336 15.584 311.078 94.966 221.077 177.759 305.288 179.475 306.683 179.475h.023l17.69-1.213 3.523 17.277c24.92 104.326 26.065 315.814-147.918 369.613-22.243 6.888-44.989 9.84-67.62 9.84M2999.54 2806.752H2727.8c-11.597 0-20.983-9.399-20.983-20.987 0-11.586 9.386-20.985 20.983-20.985h271.74c11.598 0 20.984 9.399 20.984 20.985 0 11.588-9.386 20.987-20.983 20.987"
    fill="#000072" />
  <path
    d="M1719.006 1057.356c-.127-41.345 3.768-81.272 13.104-117.875 13.888-54.344 51.126-97.171 115.822-97.171 14.544 0 30.485 2.18 47.866 6.86-.212.317-.381.57-.487.74a20.816 20.816 0 00-2.689 5.631c-16.153-4.107-31.035-6.033-44.69-6.033-64.696 0-101.934 42.848-115.822 97.192-8.785 34.465-12.744 71.873-13.104 110.656"
    fill="#e6f7ff" />
  <path
    d="M1719.86 1089.644c-.528-10.88-.824-21.676-.845-32.408.36-38.766 4.31-76.18 13.12-110.659 13.88-54.336 51.125-97.18 115.813-97.18 13.669 0 28.542 1.923 44.703 6.042-2.599 8.577.55 18.211 8.366 23.471a21.041 21.041 0 007.584 3.17l-6.95 34.604c-19.669-5.852-37.541-8.535-53.703-8.535-64.688 0-101.934 42.844-115.813 97.18-6.782 26.577-10.67 54.928-12.275 84.315"
    fill="#caa297" />
  <path
    d="M2885.325 932.358c-31.029-5.412-122.943-33.938-308.17-182.836-34.028-27.376-67.673-47.987-100.573-62.825 5.051 6.653 7.802 13.824 7.802 21.243 0 35.99-64.516 65.147-144.095 65.147-79.602 0-144.118-29.157-144.118-65.147 0-11.659 6.765-22.64 18.627-32.112-71.214 24.76-133.43 68.282-182.611 111.781-74.934 66.32-119.493 132.617-119.493 132.617a298.03 298.03 0 00-11.095-3.563l6.946-34.592c1.353.271 2.728.406 4.104.406 6.765 0 13.395-3.247 17.431-9.268 1.488-2.21 150.905-221.216 355.457-252.313 15.988-2.413 31.909-3.63 47.739-3.63 79.015 0 156.43 30.104 230.71 89.84 183.287 147.342 278.471 179.994 316.22 186.917 1.624 9.223 3.608 22.46 5.119 38.335"
    fill="#caa297" />
  <path
    d="M2907.581 1003.783c-2.84-41.402-9.748-70.283-9.748-70.283s-.273.022-.841.022c-1.568 0-5.363-.136-11.612-1.227-1.5-15.883-3.5-29.108-5.113-38.334-37.743-6.93-132.932-39.584-316.219-186.923-74.283-59.74-151.702-89.826-230.71-89.826a316.998 316.998 0 00-47.743 3.636c-204.556 31.086-353.963 250.094-355.462 252.298-4.045 6.022-10.68 9.271-17.43 9.271A21.015 21.015 0 011901 878.85c-7.816-5.271-10.952-14.906-8.361-23.473a20.784 20.784 0 012.681-5.658c.114-.159.273-.409.5-.727 5.5 1.477 11.135 3.227 16.93 5.227 0 0 44.56-66.307 119.479-132.637 74.92-66.284 180.174-132.591 301.449-132.591 76.055 0 158.382 26.04 243.527 94.506 222.576 178.902 310.425 184.06 319.787 184.06.59 0 .84-.022.84-.022s15.089 63.103 9.749 136.25"
    fill="#8080b9" />
  <path
    d="M1836.463 1573.991c-8.078 0-15.744-4.668-19.222-12.517-6.82-15.446-166.287-381.147-105.29-620.027 11.509-45.034 35.816-78.673 70.3-97.231 33.983-18.307 75.104-20.71 122.359-7.254 36.933-50.23 179.932-227.85 374.83-257.485 107.69-16.361 212.335 15.584 311.077 94.967 221.1 177.758 305.311 179.474 306.684 179.474h.023l17.689-1.213 3.524 17.277c24.92 104.326 26.064 315.815-147.919 369.614-98.558 30.48-206.225-16.11-276.592-55.035 5.401 7.735 7.53 17.46 5.515 27.208-2.974 14.6-14.416 25.515-29.13 27.827-100.39 15.629-428.721 21.716-614.489-149.52-8.535-7.85-9.062-21.122-1.213-29.635 7.872-8.512 21.122-9.062 29.657-1.213 165.86 152.907 463.16 151.763 562.841 141.054-23.73-18.719-50.252-49.795-43.02-82.22a22.093 22.093 0 0112.86-15.515c12.677-5.355 21.602.091 51.167 18.146 59.428 36.316 183.067 111.923 290.002 78.81 155.721-48.146 132.083-249.657 122.334-305.424-37.757-6.934-132.93-39.589-316.226-186.935-89.153-71.648-182.792-100.687-278.285-86.225-204.28 30.939-354.167 250.139-355.654 252.359l-9.04 13.364-15.24-5.264c-42.105-14.576-77.048-14.645-103.867-.206-30.16 16.225-43.586 47.37-49.52 70.664-57.412 224.784 101.42 589.043 103.021 592.681 4.668 10.618-.137 23.021-10.732 27.666a20.553 20.553 0 01-8.444 1.808"
    fill="#000072" />
  <path
    d="M2843.46 3119.066H1700.31c-22.634 0-40.975-18.345-40.975-40.973 0-22.64 18.341-40.987 40.976-40.987h1143.15c22.655 0 40.996 18.348 40.996 40.987 0 22.628-18.34 40.973-40.996 40.973"
    fill="#adb9c4" />
  <path
    d="M2843.347 3098.12h-1143.12c-11.039 0-20.008-8.974-20.008-20.014 0-1.68.228-3.307.601-4.867 5.779 3.121 12.386 4.88 19.408 4.88h1143.12c7.042 0 13.65-1.759 19.428-4.866.373 1.546.58 3.186.58 4.853 0 11.04-8.969 20.013-20.009 20.013"
    fill="#7981ab" />
  <path
    d="M1700.23 3058.11c-11.052 0-20.027 8.973-20.027 20 0 11.038 8.975 20.011 20.026 20.011h1143.104c11.03 0 20.005-8.973 20.005-20.012 0-11.026-8.975-19.999-20.005-19.999H1700.229m1143.104 81.97H1700.229c-34.181 0-61.967-27.8-61.967-61.97 0-34.16 27.786-61.959 61.967-61.959h1143.104c34.18 0 61.966 27.798 61.966 61.958 0 34.171-27.785 61.971-61.966 61.971"
    fill="#000072" />
  <path
    d="M2859.127 3037.14H1684.728c-14.458 0-26.592-10.84-28.255-25.187l-73.11-637.803c-2.762-24.106 16.079-45.226 40.333-45.226h1296.442c24.267 0 43.097 21.12 40.346 45.226l-73.144 637.803c-1.642 14.347-13.776 25.187-28.213 25.187"
    fill="#adb9c4" />
  <path
    d="M2287.966 2787.102c-45.764 0-82.878-37.12-82.878-82.893 0-45.772 37.114-82.877 82.878-82.877 45.783 0 82.879 37.105 82.879 82.877 0 45.774-37.096 82.893-82.879 82.893"
    fill="#d6dce2" />
  <path d="M1663.789 3028.07a28.197 28.197 0 01-7.344-15.732 28.375 28.375 0 007.344 15.732" fill="#1f43b6" />
  <path d="M2889.532 2992.286l12.002-104.74-12.002 104.74" fill="#2d60d4" />
  <path d="M2887.014 3013.601c.083-.547.167-1.094.208-1.64l2.275-19.692-2.275 19.706c-.041.547-.125 1.08-.208 1.626"
    fill="#1f43b6" />
  <path d="M1664.44 3028.747c-.213-.226-.44-.453-.654-.68.214.227.441.454.655.68" fill="#000072" />
  <path
    d="M2859.127 3037.119H1684.685c-7.826 0-14.991-3.186-20.173-8.4-.213-.226-.426-.455-.64-.68-3.902-4.227-6.589-9.652-7.357-15.734 0-.12-.042-.239-.042-.345l-2.517-22.014-4.883-42.426h1167.575c14.459 0 26.614-10.84 28.213-25.172l61.224-533.631h9.34c15.887 0 29.45 9.052 36.103 22.054l4.222-36.668c2.751-24.065-16.079-45.185-40.325-45.185h-2.474 7.187c24.246 0 43.076 21.12 40.325 45.185l-58.857 513.394-12.005 104.746-2.26 19.693c-.065.546-.129 1.092-.235 1.64-2.368 13.505-14.117 23.532-27.979 23.532"
    fill="#7981ab" />
  <path
    d="M1582.798 2410.78l-4.214-36.665c-2.76-24.066 16.067-45.186 40.306-45.186h3.44c-23.626.733-41.759 21.533-39.04 45.212l3.48 30.386a40.025 40.025 0 00-3.972 6.253"
    fill="#a0c4ff" />
  <path
    d="M1586.83 2404.493l-3.481-30.386c-2.72-23.68 15.41-44.48 39.032-45.214h1290.6l-6.872 59.8H1618.955c-13.177 0-24.757 6.241-32.126 15.8"
    fill="#d6dce2" />
  <path
    d="M2951.384 2410.821c-6.644-13-20.21-22.053-36.096-22.053h-9.328l6.858-59.798h2.47c24.234 0 43.08 21.121 40.312 45.185l-4.216 36.666"
    fill="#bcc0d5" />
  <path
    d="M1623.589 2349.946c-5.666 0-10.867 2.32-14.64 6.545-3.773 4.24-5.493 9.667-4.854 15.295l73.123 637.804a7.438 7.438 0 007.4 6.585h1174.356c3.774 0 6.97-2.84 7.399-6.585l73.136-637.804c.622-5.628-1.094-11.055-4.869-15.295-3.774-4.225-8.965-6.545-14.627-6.545zm1235.374 708.195H1684.607c-25.115 0-46.22-18.814-49.093-43.772l-73.106-637.805a61.606 61.606 0 0115.213-47.997 61.614 61.614 0 0145.957-20.598h1296.414a61.598 61.598 0 0145.94 20.598 61.64 61.64 0 0115.228 47.997l-73.115 637.805c-2.874 24.958-23.956 43.772-49.093 43.772"
    fill="#000072" />
  <path
    d="M1542.799 3009.152c0 43.839-30.28 79.371-67.639 79.371-37.372 0-67.651-35.532-67.651-79.37s30.279-79.386 67.651-79.386c37.36 0 67.639 35.546 67.639 79.385"
    fill="#ffcfae" />
  <path
    d="M1475.2 2950.767c-25.732 0-46.679 26.2-46.679 58.398s20.947 58.386 46.68 58.386 46.665-26.186 46.665-58.386-20.933-58.398-46.666-58.398m0 158.756c-48.878 0-88.637-45.026-88.637-100.358 0-55.345 39.759-100.37 88.637-100.37 48.866 0 88.625 45.025 88.625 100.37 0 55.332-39.76 100.358-88.625 100.358"
    fill="#000072" />
  <path
    d="M1418.002 3118.59h-288.02c-16.133 0-29.226-13.08-29.226-29.227 0-95.664 77.558-173.222 173.236-173.222 95.664 0 173.222 77.558 173.222 173.222 0 16.147-13.08 29.226-29.212 29.226"
    fill="#adb9c4" />
  <path
    d="M1274.005 2937.167c-83.958 0-152.25 68.292-152.25 152.236 0 4.547 3.694 8.24 8.24 8.24h288.02c4.547 0 8.24-3.693 8.24-8.24 0-83.944-68.305-152.236-152.25-152.236m144.01 202.449h-288.02c-27.679 0-50.198-22.52-50.198-50.213 0-107.077 87.118-194.195 194.208-194.195s194.209 87.118 194.209 194.195c0 27.693-22.52 50.213-50.199 50.213"
    fill="#000072" />
  <path
    d="M1020.145 3036.858c14.266 15.373 56.105 48.306 143.81 2.493 87.704-45.799 191.862-56.172 225.727-58.732 53.6-4.053 96.185-29.599 82.505-92.65-13.56-62.532-95.61-120.718-212.155-118.37-236.327 4.786-292.726 210.314-239.887 267.26"
    fill="#ffcfae" />
  <path d="M1068.544 3061.724c-23.666-3.453-38.466-14.84-46.519-22.96 8.053 8.12 22.853 19.507 46.519 22.96"
    fill="#a3bee3" />
  <path
    d="M1474.8 2908.768c-.12-6.387-.933-13.266-2.533-20.653-.013-.053-.027-.107-.04-.173 1.627 7.453 2.453 14.386 2.573 20.826m-2.613-21.013v-.04.04m-.04-.187c0-.013 0-.026-.013-.04.013.014.013.027.013.04m-.04-.2v-.013.013"
    fill="#336ee3" />
  <path
    d="M1083.21 3062.75c-5.186 0-10.053-.373-14.586-1.026-23.666-3.453-38.466-14.84-46.519-22.96a81.746 81.746 0 00.587.587c-1.88-18.04.226-38.865 6.773-60.371 7.76 2.306 16.76 3.773 27.092 3.773 21.04 0 47.666-6.053 80.852-23.4 87.704-45.799 191.862-56.172 225.714-58.732 34.493-2.6 64.398-14.12 77.705-38.785 13.093 9.746 24.013 20.626 32.506 32.186-.32-1.96-.56-3.854-.987-5.88 1.6 7.386 2.413 14.266 2.533 20.653 0 .36.014.733.014 1.093.28 47.172-38.2 67.185-85.105 70.731-33.852 2.56-138.01 12.933-225.714 58.732-33.2 17.347-59.812 23.4-80.865 23.4m-63.105-26.066a.184.184 0 00-.04-.054c.013.014.027.04.04.054m-.16-.187l-.04-.04.04.04m-.173-.173c0-.014-.014-.027-.027-.04.013.013.027.026.027.04m-.16-.187a.029.029 0 00-.027-.027l.027.027m-.174-.187v-.013.013"
    fill="#cca6a2" />
  <path d="M1288.805 2770.238a326.786 326.786 0 010 0" fill="#e6f7ff" />
  <path
    d="M1472.267 2887.968c-.013-.053-.027-.12-.04-.186.013.066.027.133.04.186m-.04-.226c-.013-.054-.027-.094-.04-.147.013.053.027.093.04.147m-.053-.187c0-.053-.014-.107-.027-.16.013.053.027.107.027.16m-.027-.173c-.133-.6-.28-1.187-.427-1.787-11.693-47.692-63.118-92.424-139.09-109.144 76.919 16.92 128.677 62.572 139.517 110.93"
    fill="#a0c4ff" />
  <path d="M1332.537 2776.505l-1.84-.4 1.84.4" fill="#d0e2ff" />
  <path d="M1330.804 2776.105c-13.28-2.827-27.293-4.8-41.959-5.787 14.666.987 28.68 2.96 41.959 5.787" fill="#8080b9" />
  <path
    d="M1019.9449999999999 3036.6310000000003c-.04-.04-.08-.08-.12-.133.04.04.08.093.12.133m-.16-.173a.632.632 0 00-.133-.133c.04.04.093.08.133.133m-.16-.173c-.04-.054-.093-.094-.133-.147.04.053.093.093.133.147m-.16-.174c-.04-.053-.093-.106-.147-.16.054.054.107.107.147.16m-.147-.173c-51.412-58.198 5.64-261.58 240.714-266.34h.467c2.133-.04 4.24-.067 6.36-.067 7.44 0 14.746.254 21.893.734 14.666.986 28.679 2.96 41.959 5.786l1.84.4c75.971 16.72 127.396 61.452 139.09 109.144-3.867-15.786-12.134-31.226-24.16-45.465-1.027 8.146-3.347 15.36-6.773 21.706-36.453-27.186-89.678-45.64-153.863-45.64-2.253 0-4.533.028-6.813.08-150.236 3.028-227.728 87.172-250.687 162.704-11.413-3.387-20.173-8.6-26.653-13.667-2.933 29.466 2.987 55.172 16.626 70.625"
    fill="#ffe7d7" />
  <path
    d="M1472.267 2888.102c-.013-.054-.027-.107-.04-.174a54.945 54.945 0 00-.547-2.373c.147.6.294 1.187.427 1.787v.013c.013.053.027.107.027.16.013.013.013.027.013.04.013.053.027.093.04.147v.04c.013.066.027.133.04.186.013.067.027.12.04.174"
    fill="#99b7f1" />
  <path
    d="M1022.678 3039.351a81.746 81.746 0 01-2.426-2.493 2.05 2.05 0 00-.16-.173c-.014-.014-.027-.04-.04-.054-.04-.04-.08-.093-.12-.133l-.04-.04c-.04-.053-.094-.093-.134-.133 0-.014-.013-.027-.026-.04-.04-.054-.094-.094-.134-.147l-.026-.027c-.04-.053-.094-.106-.147-.16v-.013c-13.64-15.453-19.56-41.159-16.626-70.625 6.48 5.067 15.24 10.28 26.652 13.667-6.546 21.506-8.653 42.332-6.773 60.371m450.642-145.33c-8.493-11.56-19.413-22.439-32.506-32.185 3.427-6.347 5.747-13.56 6.774-21.706 12.026 14.24 20.292 29.679 24.16 45.465.199.8.386 1.587.546 2.373.013.067.026.12.04.174.426 2.026.666 3.92.986 5.88"
    fill="#e6d3d1" />
  <path
    d="M1035.611 3022.578c24.266 26.146 66.425 25.506 118.73-1.826 84.505-44.132 182.783-57.199 233.848-61.052 27.72-2.093 48.346-10.426 58.079-23.466 7.72-10.36 9.573-25.106 5.52-43.812-11.08-51.026-81.798-104.038-191.236-101.838-158.529 3.2-212.128 100.704-224.767 130.517-19.44 45.799-14.8 85.718-.174 101.477zm47.812 60.986c-42.092 0-67.238-20.24-78.558-32.44-28.666-30.892-31.759-89.73-7.706-146.423 40.399-95.224 138.543-153.57 262.54-156.076 133.17-2.68 218.101 65.825 233.088 134.904 6.746 31.105 2.413 57.265-12.893 77.784-17.333 23.253-47.946 37.16-88.545 40.226-38.519 2.92-136.837 14.24-217.581 56.412-36.146 18.88-66.065 25.613-90.345 25.613"
    fill="#000072" />
  <path
    d="M1292.272 2749.572c26.932-1.773 53.785-1.373 80.704-.48 29.666 1.267 59.025 8.666 85.265 21.68 13.346 6.026 25.452 14.386 37.172 22.772 5.56 4.667 11.387 8.893 16.426 14.08l7.707 7.493 7.2 7.96c9.306 10.8 17.64 22.346 24.306 34.719l4.96 9.24 4.226 9.573c1.453 3.146 2.733 6.373 3.773 9.693l1.654 4.92.826 2.44.414 1.226.2.6.106.307.054.16.013.067c-1.2.586 2.747-1.2-2.693 1.333-5.453 2.48-1.534.653-2.774 1.187l-.04-.067-.093-.12-.173-.267-.36-.52-.733-1.026-1.44-2.054-2.867-4.093c-1.893-2.72-3.747-5.44-5.893-7.986l-6.093-7.734-6.507-7.333c-4.173-4.96-9.12-9.253-13.533-13.866-4.906-4.187-9.52-8.6-14.666-12.386-9.76-8.147-20.8-14.48-31.506-20.773-11.133-5.667-22.386-10.867-34.12-14.586-23.265-8.067-47.665-10.774-71.624-11.134-26.813 0-53.705-.426-80.518-3.066h-.04c-11.573-1.147-20.026-11.44-18.893-23.013 1.027-10.4 9.453-18.293 19.56-18.946M1326.27 2837.836c10.374 9 18.974 19.373 26.947 30.44 7.786 11.133 14.68 23.066 20.333 35.852 5.466 12.84 10.013 26.546 11.906 41.106 1.613 14.586.813 30.106-4.293 44.719-3.694 10.6-15.293 16.2-25.893 12.493-8.333-2.907-13.573-10.693-13.64-19.04l-.013-2.253c-.067-10.667.333-21-.027-32.093-.72-11.04-1.346-22.626-3.053-34.492-3.64-23.72-9.946-48.239-17.08-73.518l-.04-.134a3.004 3.004 0 012.067-3.706c1-.28 2.04-.014 2.787.626M1220.007 2859.836c8.586 10.026 16 20.6 23.172 31.332 7.04 10.787 13.68 21.787 19.827 33.053 6.106 11.28 12.093 22.68 16.773 34.652 4.653 11.973 8.6 24.333 10.333 37.413 1.48 11.226-6.414 21.533-17.64 23.013-8.92 1.173-17.253-3.56-21.053-11.187l-.173-.387c-5.453-11-9.4-22.519-13.013-34.279-3.693-11.746-6.44-23.92-9.32-36.119-5.693-24.426-11.066-49.212-14.213-75.158a3.029 3.029 0 012.64-3.373 3.094 3.094 0 012.667 1.04M1116.276 2920.768c8.933 7.333 16.76 15.36 24.36 23.599 7.466 8.32 14.586 16.906 21.225 25.84 6.6 8.96 13.12 18.066 18.36 27.945 5.227 9.88 9.786 20.267 12.146 31.693 2.294 11.12-4.866 22-15.986 24.293-8.453 1.746-16.773-1.974-21.28-8.733l-.386-.587c-5.72-8.64-10.08-17.96-14.173-27.586-4.16-9.613-7.493-19.76-10.96-29.933-6.88-20.413-13.586-41.225-18.24-63.518a3.054 3.054 0 012.36-3.64c.934-.2 1.88.067 2.574.627M2363.442 1540.649c-8.676 0-15.72-7.044-15.72-15.72 0-2.803-.71-6.458-6.245-9.97-5.27-3.354-13.023-5.27-21.273-5.27-10.645 0-27.518 4.134-27.518 15.24 0 8.676-7.044 15.72-15.72 15.72-8.693 0-15.72-7.044-15.72-15.72 0-27.074 24.786-46.697 58.958-46.697 34.154 0 58.957 19.623 58.957 46.697 0 8.676-7.043 15.72-15.72 15.72"
    fill="#000072" />
  <path
    d="M2095.217 1358.604c-91.65 0-166.198 74.566-166.198 166.199S2003.567 1691 2095.217 1691s166.199-74.566 166.199-166.198-74.548-166.199-166.199-166.199zm0 363.839c-108.973 0-197.64-88.65-197.64-197.64s88.667-197.64 197.64-197.64 197.64 88.648 197.64 197.64-88.666 197.64-197.64 197.64M2540.458 1363.807c-88.742 0-160.941 72.18-160.941 160.942 0 88.741 72.2 160.941 160.941 160.941s160.942-72.2 160.942-160.941c0-88.762-72.2-160.942-160.942-160.942zm0 352.34c-105.542 0-191.418-85.876-191.418-191.398 0-105.543 85.876-191.398 191.418-191.398 105.523 0 191.398 85.855 191.398 191.398 0 105.522-85.875 191.397-191.398 191.397"
    fill="#000072" />
  <path
    d="M1916.729 1513.03h-102.252c-7.961 0-14.406-6.46-14.406-14.422s6.445-14.405 14.406-14.405h102.252c7.96 0 14.423 6.444 14.423 14.405s-6.462 14.423-14.423 14.423M2812.586 1513.077h-95.868c-7.97 0-14.424-6.454-14.424-14.424 0-7.95 6.454-14.404 14.424-14.404h95.868c7.95 0 14.403 6.454 14.403 14.404 0 7.97-6.454 14.424-14.403 14.424M1268.005 3139.576c-11.586 0-20.972-9.4-20.972-20.987v-109.437c0-11.586 9.386-20.986 20.972-20.986s20.987 9.4 20.987 20.986v109.437c0 11.587-9.4 20.987-20.987 20.987M2197.841 1556.772c-9.578 67.244-60.016 109.046-112.678 93.397-52.628-15.667-87.54-82.875-77.962-150.12 9.578-67.226 60.016-109.028 112.678-93.38 52.628 15.668 87.558 82.876 77.962 150.103"
    fill="#000072" />
  <path
    d="M2159.332 1499.46c1.914 23.735-8.144 43.224-22.5 43.502-14.338.278-27.51-18.74-29.442-42.51-1.914-23.735 8.144-43.224 22.482-43.503 14.356-.278 27.528 18.759 29.46 42.51M2072.87 1566.59c.338 11.921-5.175 21.498-12.341 21.397-7.15-.101-13.236-9.864-13.573-21.784-.354-11.92 5.159-21.498 12.325-21.397 7.166.118 13.236 9.864 13.59 21.785"
    fill="#fff" />
  <path
    d="M2446.735 1556.829c9.576 67.226 60.015 109.02 112.665 93.376 52.649-15.663 87.561-82.87 77.965-150.096-9.576-67.247-60.015-109.04-112.664-93.397-52.65 15.683-87.562 82.87-77.966 150.117"
    fill="#000072" />
  <path
    d="M2485.048 1499.46c-1.928 23.74 8.145 43.23 22.486 43.492 14.341.281 27.521-18.74 29.45-42.499 1.928-23.74-8.144-43.21-22.486-43.492s-27.521 18.76-29.45 42.5M2571.744 1566.728c-.343 11.928 5.172 21.509 12.33 21.414 7.156-.115 13.244-9.867 13.588-21.795.343-11.91-5.172-21.49-12.33-21.395-7.175.115-13.244 9.867-13.588 21.776"
    fill="#fff" />
  <path
    d="M2194.143 1730.094c0 26.326 8.282 54.347 25.027 76.92 19.396 26.38 50.07 45.235 92.022 45.235 34.734 0 66.526-18.747 88.215-45.524 17.917-22.049 28.851-49.601 28.851-76.63 0-29.321-12.63-29.736-33.146-22.519-7.578 2.598-16.275 6.351-25.802 9.996-17.087 6.586-36.9 13.046-58.118 13.046-22.266 0-43.07-6.93-60.753-13.695-9.816-3.754-18.747-7.398-26.325-9.816-18.694-5.81-29.97-4.042-29.97 22.987"
    fill="#000072" />
  <path
    d="M2221.08 1721.984c0 22.436 20.753 44.621 50.865 47.466 30.094 2.845 45.301 2.845 75.395 0 34.12-3.22 56.233-31.256 49.774-56.376-.465-1.825-1.073-3.686-1.843-5.44-7.604 2.613-16.28 6.37-25.8 9.984-17.121 6.602-36.927 13.043-58.129 13.043-22.293 0-43.1-6.906-60.76-13.669-9.84-3.757-18.732-7.443-26.336-9.84-.859 1.932-1.467 3.846-2.004 5.922a35 35 0 00-1.163 8.91"
    fill="#fff" />
  <path
    d="M2220.986 1721.952c0 22.43 20.752 44.628 50.86 47.467 15.055 1.411 26.36 2.125 37.7 2.125s22.643-.714 37.698-2.125c30.127-2.857 50.896-25.055 50.896-47.503a35.78 35.78 0 00-1.125-8.875 34.283 34.283 0 00-1.84-5.447c-7.607 2.607-16.286 6.375-25.805 9.983-17.126 6.607-36.93 13.054-58.128 13.054-22.287 0-43.092-6.929-60.754-13.661-9.84-3.786-18.733-7.465-26.34-9.84-.858 1.91-1.465 3.84-2 5.91.535-2.07 1.142-4 2-5.91 7.607 2.375 16.5 6.054 26.34 9.84 17.662 6.732 38.467 13.661 60.754 13.661 21.198 0 41.002-6.447 58.128-13.054 9.519-3.608 18.198-7.376 25.805-9.983.768 1.75 1.376 3.607 1.84 5.447a35.78 35.78 0 011.125 8.875c0 22.448-20.77 44.646-50.896 47.503-15.055 1.411-26.359 2.125-37.699 2.125s-22.644-.714-37.698-2.125c-30.11-2.84-50.86-25.037-50.86-47.467"
    fill="#000072" />
  <path
    d="M2219.378 1806.909c19.404 26.39 50.064 45.24 92.035 45.24 34.735 0 66.521-18.743 88.212-45.526-15.276-9.756-61.07-22.692-81.797-5.289-6.468 5.467-8.058 15.866-8.058 15.866s-1.59-10.399-8.112-15.866c-20.977-17.582-67.468-4.235-82.28 5.575"
    fill="#ff4aa1" />
  <path
    d="M2222.872 1807.55c15.2 19.742 42.613 42.238 88.588 42.238 31.133 0 61.837-15.486 84.637-42.56-16.183-8.87-57.903-19.902-76.715-4.112-5.668 4.792-7.206 14.305-7.224 14.413-.358 2.306-4.31 2.306-4.667 0-.018-.09-1.538-9.621-7.296-14.413-18.598-15.594-60.764-5.061-77.323 4.434zm88.588 46.941c-49.551 0-78.413-25.124-93.935-46.208a2.486 2.486 0 01-.411-1.806 2.332 2.332 0 011.02-1.555c14.841-9.836 63.034-23.909 85.083-5.437 3.147 2.63 5.24 6.223 6.598 9.442 1.36-3.219 3.416-6.795 6.527-9.424 21.87-18.311 69.222-4.72 84.601 5.115.572.357.948.93 1.055 1.609a2.309 2.309 0 01-.5 1.842c-23.855 29.506-56.67 46.422-90.038 46.422"
    fill="#390075" />
  <path
    d="M2208.663 1717.29c.09.09-1.65 2.863-1.65 12.74 0 53.025 36.517 109.367 104.222 109.367 58.697 0 104.202-58.788 104.202-109.367 0-11.164-2.084-13.7-2.102-13.719-.054.109-2.99-.507-13.9 3.317-4.421 1.522-9.115 3.407-14.135 5.418-3.643 1.45-7.43 2.972-11.38 4.476-17.779 6.85-39.18 13.882-62.685 13.882-24.14 0-46.575-7.34-65.331-14.516l-7.611-2.954c-6.579-2.573-12.795-4.984-17.978-6.615-8.608-2.7-11.217-2.156-11.652-2.03zm102.572 147.75c-84.36 0-129.864-69.553-129.864-135.01 0-10.493 1.268-25.426 12.305-33.545 10.474-7.683 23.83-4.91 34.305-1.649 6.035 1.885 12.631 4.477 19.626 7.213l7.467 2.881c17.397 6.67 36.262 12.831 56.16 12.831 19.3 0 37.876-6.162 53.515-12.196 3.879-1.468 7.521-2.936 11.037-4.35 5.437-2.156 10.529-4.186 15.223-5.799 12.232-4.313 26.295-7.702 37.295.09 11.471 8.12 12.794 23.596 12.794 34.524 0 63.736-55.526 135.01-129.863 135.01M2356.413 2689.772c0 45.772-37.106 82.88-82.871 82.88-45.784 0-82.89-37.108-82.89-82.88 0-45.775 37.106-82.88 82.89-82.88 45.765 0 82.87 37.105 82.87 82.88"
    fill="#000072" />
  <path
    d="M1475.2 3067.537c-2.813 0-5.546-.306-8.213-.906a193.08 193.08 0 00-12.853-50.092c6.627 2.08 12.44 3.013 17.56 3.013 29.772 0 35.732-31.52 36.492-51.666 8.453 10.574 13.68 25.173 13.68 41.266 0 32.2-20.933 58.385-46.666 58.385"
    fill="#cca6a2" />
  <path
    d="M1468.267 3086.857a198.655 198.655 0 00-1.306-20.226c2.666.6 5.4.906 8.213.906 25.732 0 46.665-26.186 46.665-58.385 0-16.093-5.226-30.692-13.68-41.266.36-9.48-.426-16.44-.426-16.44l27.2 20.52 6.772 22.733-10.573 59.039-30.852 24.386-32.013 8.733"
    fill="#000072" />
  <path
    d="M1462.134 3088.523l-14.866-39.212-10.813-40.159c6.426 3.28 12.28 5.707 17.626 7.387a193.08 193.08 0 0112.853 50.092c.773 6.653 1.213 13.4 1.306 20.226l-6.106 1.666M193.896 3123.757c81.665-12.081 163.331-14.975 244.997-16.454 81.666-1.68 163.332-.787 244.998.12l122.499.733 122.499.04h2694.964l122.493-.04 61.26-.56 61.233-.972c40.85-.495 81.672.279 122.493 2.237 40.85 2.522 81.672 6.07 122.522 14.896 4.292.918 7.021 5.16 6.083 9.452a7.94 7.94 0 01-6.083 6.092c-40.85 8.827-81.672 12.375-122.522 14.893-40.821 1.962-81.643 2.75-122.493 2.243l-61.232-.975-61.261-.56-122.493-.04H928.889l-122.5.054-122.498.72c-81.666.92-163.332 1.799-244.998.133-81.666-1.492-163.332-4.386-244.997-16.468-4.296-.625-7.264-4.625-6.63-8.917a7.873 7.873 0 016.63-6.627M3773.835 2777.62c-7.538 0-14.864-4.028-18.725-11.12l-106.292-194.732c-5.66-10.347-1.851-23.295 8.49-28.947 10.34-5.641 23.3-1.84 28.96 8.505l106.291 194.735c5.634 10.346 1.825 23.292-8.516 28.946a21.25 21.25 0 01-10.208 2.613"
    fill="#000072" />
  <path d="M3892.487 2581.282l-3.838 49.922-38.296 495.684h-309.096l-38.296-495.684-3.838-49.922h393.364" fill="#fff" />
  <path
    d="M3544.349 3123.609h302.903l41.625-538.918h-386.154l41.626 538.918m309.096 6.667h-315.29l-42.627-552.252h400.544l-42.627 552.252"
    fill="#000072" />
  <path
    d="M3847.27 3123.573h-302.927l-6.556-84.828H3707.8c54.288 0 100.724-35.919 115.78-86.013h36.884l-13.194 170.841m33.134-429.148h-34.105l4.883-63.214h34.106l-4.884 63.214"
    fill="#b2b2d4" />
  <path
    d="M3850.232 3126.919h-309.065l-38.289-495.676h3.105l4.888 63.212h-3.105l19.954 258.301h3.105l6.643 86.012h.216l6.561 84.824h302.909l13.204-170.836h3.32l8.56-110.651-22.006 284.817m33.401-432.464h-3.348l4.887-63.212h3.349l-4.888 63.212"
    fill="#000072" />
  <path d="M3851.188 2631.263H3506.35l-3.618-46.584h352.047l-3.59 46.584" fill="#b2b2d4" />
  <path
    d="M3888.539 2631.282h-.027l3.594-46.583-3.567 46.583m-382.3 0h-.242l-3.594-46.583h.216l3.62 46.583m-3.35 0h-.027l-3.567-46.583 3.594 46.583"
    fill="#000072" />
  <path d="M3885.282 2631.242h-34.106l3.592-46.586h34.105l-3.591 46.586" fill="#7c7cb6" />
  <path
    d="M3888.539 2631.282h-3.351l3.621-46.583h3.324l-3.594 46.583m-382.515 0h-3.108l-3.594-46.583h3.108l3.594 46.583"
    fill="#000072" />
  <path
    d="M3918.334 2581.334h-445.243c-16.944 0-30.657-13.733-30.657-30.666v-36.92c0-16.947 13.713-30.68 30.657-30.68h445.243c16.917 0 30.658 13.733 30.658 30.68v36.92c0 16.933-13.741 30.666-30.658 30.666"
    fill="#26ba02" />
  <path
    d="M3473.348 2486.34c-15.094 0-27.366 12.264-27.366 27.344v36.922c0 15.08 12.272 27.334 27.366 27.334h445.235c15.066 0 27.339-12.254 27.339-27.334v-36.922c0-15.08-12.273-27.344-27.34-27.344h-445.234m445.235 98.264h-445.235c-18.765 0-34.023-15.253-34.023-33.998v-36.922c0-18.76 15.258-34.012 34.023-34.012h445.235c18.737 0 33.996 15.253 33.996 34.012v36.922c0 18.745-15.259 33.998-33.996 33.998"
    fill="#000072" />
  <path
    d="M3945.732 2526.456c-3.72-5.746-10.148-9.56-17.506-9.56h-464.913c-7.33 0-13.786 3.803-17.506 9.55v-12.722c0-10.093 5.498-18.92 13.677-23.652 1.23-.24 2.516-.361 3.83-.361h464.912c1.34 0 2.626.12 3.857.361 8.178 4.732 13.649 13.559 13.649 23.652v12.732"
    fill="#93dd81" />
  <path
    d="M3442.598 2537.784V2510.6c0-10.2 7.308-18.693 16.97-20.494-8.184 4.733-13.658 13.56-13.658 23.653v12.72c-.712 1.08-1.287 2.228-1.78 3.427-1.012-2.44-1.532-5.094-1.532-7.894v15.772m504.998-7.878a21.936 21.936 0 00-1.78-3.414v-12.733c0-10.093-5.474-18.92-13.658-23.653 9.662 1.815 16.97 10.295 16.97 20.494v11.412c0 2.8-.547 5.455-1.532 7.894"
    fill="#8080b9" />
  <path
    d="M3455.945 2579.973a20.783 20.783 0 01-12.122-12.106c2.928 5 7.114 9.172 12.122 12.106m479.593 0c4.98-2.934 9.167-7.093 12.095-12.068-2.107 5.547-6.54 9.96-12.095 12.068"
    fill="#8ea6d4" />
  <path
    d="M3918.38 2577.989h-445.247c-15.072 0-27.353-12.251-27.353-27.33v-17.362c3.72 5.747 10.175 9.546 17.506 9.546h464.913c7.358 0 13.786-3.799 17.506-9.56v17.375c0 15.08-12.254 27.33-27.326 27.33"
    fill="#1b8224" />
  <path
    d="M3928.189 2581.334h-464.925c-2.573 0-5.064-.469-7.336-1.334a34.167 34.167 0 01-12.126-12.106 20.761 20.761 0 01-1.341-7.413v-22.708c0-2.784.52-5.453 1.533-7.878.492 1.199 1.067 2.346 1.779 3.413v17.36c0 15.08 12.263 27.332 27.345 27.332h445.216c15.083 0 27.346-12.252 27.346-27.332v-17.373a21.918 21.918 0 001.779-3.4 20.918 20.918 0 011.533 7.878V2522v38.48c0 2.625-.493 5.146-1.369 7.45-2.929 4.974-7.117 9.135-12.099 12.07a20.644 20.644 0 01-7.335 1.333"
    fill="#000072" />
  <path
    d="M3948.992 2537.784c0-2.784-.548-5.453-1.533-7.878a20.992 20.992 0 001.533-7.894v15.772m-506.531 0v-15.772c0 2.8.52 5.455 1.533 7.894-1.013 2.425-1.533 5.094-1.533 7.878"
    fill="#5959a4" />
  <path
    d="M3894.225 2483.031h-396.844v-9.92c0-37.026 30.01-67.05 67.051-67.05h262.742c37.04 0 67.051 30.024 67.051 67.05v9.92"
    fill="#26ba02" />
  <path
    d="M3500.564 2479.717h390.184v-6.586c0-35.133-28.599-63.718-63.718-63.718h-262.748c-35.146 0-63.718 28.585-63.718 63.718v6.586m396.84 6.667h-403.496v-13.253c0-38.812 31.548-70.385 70.374-70.385h262.748c38.799 0 70.374 31.573 70.374 70.385v13.253"
    fill="#000072" />
  <path
    d="M3497.4 2451.543c1.432-24.318 20.898-43.797 45.203-45.303-21.385 6.972-38.282 23.918-45.203 45.303m396.689-.027c-6.921-21.385-23.845-38.304-45.203-45.276 24.278 1.52 43.743 20.971 45.203 45.276"
    fill="#e6f7ff" />
  <path
    d="M3890.748 2469.006c-7.132-17.814-24.557-30.373-44.873-30.373h-300.194c-20.315 0-37.713 12.549-44.872 30.346 2.134-33.212 29.852-59.585 63.62-59.585h262.725c33.742 0 61.46 26.386 63.594 59.612"
    fill="#93dd81" />
  <path
    d="M3894.225 2483.031h-.19a49.39 49.39 0 00-3.27-14.027c-2.136-33.225-29.849-59.61-63.618-59.61h-262.715c-33.769 0-61.454 26.371-63.59 59.583a48.597 48.597 0 00-3.299 14.054h-.189v-28.653c0-.974.027-1.944.081-2.907 6.922-21.386 23.847-38.332 45.233-45.305 1-.054 2-.092 3.028-.092h300.188c1.027 0 2.027.038 3.055.092 21.359 6.973 38.284 23.892 45.205 45.28.054.974.081 1.947.081 2.932v28.653"
    fill="#8080b9" />
  <path
    d="M3472.97 2503.083c-5.911 0-10.695 4.798-10.695 10.679v36.918c0 5.881 4.784 10.665 10.696 10.665h445.204c5.884 0 10.668-4.784 10.668-10.665v-36.918c0-5.881-4.784-10.68-10.668-10.68zm445.205 98.262H3472.97c-27.963 0-50.702-22.733-50.702-50.665v-36.918c0-27.946 22.739-50.68 50.702-50.68h445.204c27.935 0 50.673 22.734 50.673 50.68v36.918c0 27.932-22.738 50.665-50.673 50.665"
    fill="#000072" />
  <path
    d="M3518.508 2463.032h354.674c-4.617-21.119-23.466-36.972-45.954-36.972h-262.74c-22.487 0-41.336 15.853-45.98 36.972zm395.766 39.998h-436.858v-29.92c0-47.998 39.055-87.05 87.073-87.05h262.739c47.99 0 87.046 39.052 87.046 87.05v29.92"
    fill="#000072" />
  <path d="M3883.793 2694.411l-19.96 258.307h-335.97l-19.96-258.307h375.89" fill="#26ba02" />
  <path
    d="M3656.936 2861.308c1.85 1.708 3.91 3.081 6.152 4.187 19.473 9.44 47.106-7.386 61.73-37.544 10.897-22.44 11.523-45.973 3.155-60.425-7.143 2.411-25.443 10.745-27.398 33.879-1.278 14.971-5.11 59.757-43.64 59.903"
    fill="#fff" />
  <path
    d="M3648.486 2848.33c1.453-1.852 3.813-2.998 6.407-2.837 12.813.586 26.457-4.228 29.958-45.387 2.024-23.852 17.016-37.625 30.218-44.343-19.401-8.376-46.325 8.372-60.695 38.038-9.52 19.624-11.231 40.038-5.888 54.53"
    fill="#fff" />
  <path
    d="M3863.834 2952.729h-335.972l-3.506-45.387h179.368c61.093 0 111.91-47.04 116.63-107.972l8.118-104.948h55.321l-19.96 258.307"
    fill="#1b8224" />
  <path
    d="M3543.049 2936.111h305.105l17.36-224.962h-339.852zM3879 2969.444h-366.799l-22.532-291.62h411.863l-22.532 291.62"
    fill="#000072" />
  <path
    d="M3560.99 3105.57h269.554l38.876-502.894h-347.307zm309.055 42.664h-348.557l-45.45-588.227h439.485l-45.478 588.227"
    fill="#000072" />
  <path
    d="M3651.47 2239.146h-.11c-2.176-.055-3.939-1.84-3.994-4.002l-.689-23.306c-.137-8.427 1.543-16.987 5.013-24.786 6.912-15.625 20.847-28.214 37.59-33.094 8.318-2.665 17.543-2.707 24.841-2.825l23.27-.507 46.542-.906 93.083-1.267 23.271-.308c7.215-.094 13.136-1.038 19.277-3.385 11.98-4.536 22.004-13.962 27.292-25.482 5.343-11.45 6.114-25.025 1.983-36.905-4.049-11.908-12.971-22.054-24.152-27.642a48.36 48.36 0 00-17.928-5.012l-4.765-.173-5.81.027-11.65.094-46.513.105-186.166.107-186.138-.639-11.622-.066-5.81-.028-2.975-.04-3.553-.174c-9.473-.612-18.892-3.412-27.016-8.279-16.496-9.506-28.007-26.974-30.073-45.853-2.368-18.76 4.875-38.373 18.452-51.24 6.802-6.44 15.036-11.32 23.959-14.132 6.72-2.294 14.348-2.735 20.71-2.735 1.955 0 3.8.041 5.452.08l186.139 2.214c62.046 1.212 124.092 2 186.138 3.68a4.118 4.118 0 014.02 4.226c-.082 2.2-1.845 3.947-4.02 4-62.046 1.68-124.092 2.467-186.138 3.681l-186.139 2.212c-8.427.027-13.852.08-19.883 2.186a41.31 41.31 0 00-15.56 9.656c-8.702 8.718-13.053 21.387-11.263 33.479 1.542 12.013 8.977 23.067 19.525 28.971 5.205 3.055 11.126 4.71 17.102 5.015l2.258.108h2.864l5.811-.042 11.622-.066 186.138-.628 186.166.108 46.513.107 11.65.08 5.81.039 6.83.36c9.226.868 18.314 3.534 26.52 7.827 16.469 8.535 29.275 23.599 35.003 41.174 5.756 17.532 4.489 37.173-3.745 53.652-8.124 16.452-22.775 29.401-39.96 35.374-7.794 2.854-16.689 4.027-24.537 4.027-.606 0-1.24-.014-1.818-.028l-23.27-.306-93.084-1.266-46.541-.906-23.27-.507c-2.782-.08-5.398-.163-7.877-.163-4.764 0-9.06.295-13.44 1.454-13.3 3.2-25.005 12.735-31.201 25.226-3.14 6.216-5.012 13.12-5.288 20.214l-.743 23.213a4.09 4.09 0 01-4.104 4.002M3936.381 1946.726c-4.627 0-9.254-.322-13.853-1.08-5.702-1.027-11.403-2.44-17.104-5.494a3.757 3.757 0 01-1.542-5.065 3.828 3.828 0 011.542-1.534c5.701-3.04 11.402-4.467 17.104-5.495 4.599-.76 9.226-1.08 13.826-1.08 1.101 0 2.175.015 3.277.056 5.701.16 11.402.639 17.104 1.652 5.7 1.094 11.402 2.375 17.103 4.867a3.606 3.606 0 011.846 4.746 3.679 3.679 0 01-1.846 1.853c-5.701 2.506-11.402 3.773-17.103 4.867-5.702 1.013-11.403 1.493-17.104 1.652a85.265 85.265 0 01-3.25.055M3917.937 1845.915c-17.913 0-35.798-.52-53.71-1.333-22.526-1.308-45.078-3.026-67.631-6.867-2.278-.388-3.824-2.548-3.43-4.815a4.173 4.173 0 013.43-3.41c22.553-3.842 45.105-5.56 67.63-6.868 17.885-.812 35.77-1.333 53.654-1.333 4.668 0 9.336.026 14.004.107 11.277.093 22.525.186 33.801.625 11.277.28 22.553.773 33.83 1.414 22.552 1.28 45.105 2.933 67.658 6.054 2.277.307 3.852 2.4 3.543 4.68a4.14 4.14 0 01-3.543 3.546c-22.553 3.118-45.106 4.772-67.659 6.054-11.276.638-22.552 1.133-33.829 1.398-11.276.441-22.524.548-33.8.64-4.64.068-9.309.108-13.948.108"
    fill="#7a8fc7" />
  <path
    d="M3542.352 413.833h-181.42c-26.188 0-47.927-19.11-52.022-44.136 3.437 21.006 19.312 37.791 39.838 42.644-8.24-9.302-13.271-21.486-13.271-34.883v-59.833c0-29.12 23.584-52.73 52.705-52.73h191.986c9 9.454 14.535 22.244 14.535 36.35v59.858c0 28.994-23.407 52.528-52.35 52.73m-233.469-44.186v-.05.05m35.44-118.453c5.207-1.744 10.794-2.68 16.608-2.68h230.333-230.333c-5.814 0-11.4.936-16.608 2.68m263.347 0a52.282 52.282 0 00-15.496-2.654h-.177a51.713 51.713 0 0115.673 2.654m-15.673-2.654h-.177.177m-.202 0h-.152.152m-.177 0h-.025c-.025 0-.076-.026-.101-.026h-.025c.05 0 .1 0 .151.026m-.177-.026h-.151.151"
    fill="#e0bbb6" />
  <path
    d="M3591.055 451.94H3360.89c-50.13 0-90.893-40.763-90.893-90.893v-59.831c0-22.183 7.978-42.513 21.205-58.314h115.854c27.948 0 53.013-12.687 69.688-32.605h3.912c16.675 19.918 41.715 32.605 69.687 32.605h110.4c13.227 15.8 21.204 36.13 21.204 58.314v59.831c0 50.13-40.762 90.893-90.892 90.893m-48.74-38.164h-.36 49.1c29.105 0 52.729-23.598 52.729-52.729V301.19c0-23.315-15.158-43.079-36.13-50.053a53.492 53.492 0 00-15.673-2.65H3360.89c-5.79 0-11.375.926-16.599 2.65-20.973 6.974-36.13 26.738-36.13 50.053v59.857c0 2.882.231 5.739.694 8.492v.078s.026.025.026.051c4.092 25.013 25.837 44.108 52.009 44.108h181.424"
    fill="#7a8fc7" />
  <path
    d="M3348.616 412.243c-20.5-4.86-36.39-21.658-39.84-42.636v-.075c0-.026 0-.026-.025-.05-.428-2.77-.68-5.617-.68-8.488v-59.86c0-23.32 15.16-43.09 36.138-50.065a53.144 53.144 0 0116.596-2.644h230.15-49.082c15.01 0 28.583 6.27 38.178 16.344H3388.08c-29.138 0-52.734 23.622-52.734 52.734v59.86c0 13.373 5.036 25.587 13.271 34.88m243.448-163.818h-.025.025m-.151 0h-.05.05m-.202 0h-.025.025m-.176 0h-.05.05m-.176 0h-.05.05m-.177 0h-.05.05"
    fill="#e0d8db" />
  <path
    d="M3308.876 369.639c0-.026-.025-.05-.025-.05s.025.024.025.05m-.025-.126a52.163 52.163 0 01-.68-8.487V301.17c0-23.319 15.134-43.087 36.11-50.037-20.976 6.95-36.11 26.718-36.11 50.062v59.832c0 2.896.226 5.742.68 8.487m283.121-121.05h-.025.025m-.176 0h-.025.025m-.176 0h-.025.025m-.176 0h-.05.05m-.202 0h-.025.025"
    fill="#aec2e3" />
  <path
    d="M3591.077 413.58h-48.706c28.943-.205 52.353-23.742 52.353-52.736v-59.85c0-14.102-5.534-26.904-14.561-36.364h38.2c4.207 0 8.262.535 12.19 1.479-9.436-10.66-23.08-17.52-38.38-17.825a51.888 51.888 0 0115.505 2.652c20.987 6.961 36.134 26.75 36.134 50.058v59.85c0 29.122-23.613 52.735-52.735 52.735m1.097-165.295h-.153.153m-.179 0h-.153.153m-.204 0c-.026 0-.077 0-.128-.026.051.026.102.026.128.026m-.179-.026h-.127.127m-.178 0h-.128.128m-.179 0h-.178.178"
    fill="#c2aebb" />
  <path
    d="M3591.077 413.58h-49.089H3591.077c29.122 0 52.735-23.614 52.735-52.736v-59.85c0-23.308-15.147-43.097-36.134-50.058 20.987 6.961 36.134 26.724 36.134 50.058v59.85c0 29.122-23.613 52.735-52.735 52.735"
    fill="#7a8fc7" />
  <path
    d="M3630.606 266.064c-3.914-.915-7.981-1.474-12.175-1.474h-38.206c-9.583-10.066-23.157-16.37-38.18-16.37H3591.36c.05 0 .102 0 .152.025H3592.25c15.277.305 28.927 7.169 38.357 17.82"
    fill="#c2c2d5" />
  <path
    d="M3358.06 204.746h-181.055c-29.131 0-52.722-23.591-52.722-52.723V92.174c0-15.294 6.528-29.079 16.906-38.703-10.378 9.624-16.906 23.41-16.906 38.703v59.85c0 25.437 17.999 46.661 41.98 51.63-5.826-8.48-9.26-18.754-9.26-29.808v-59.85c0-29.13 23.617-52.722 52.723-52.722h191.07a52.466 52.466 0 0110.013 30.9v59.85c0 29.13-23.617 52.722-52.748 52.722M3459.68 87.44"
    fill="#e0bbb6" />
  <path
    d="M3406.99 242.75h-230.142c-50.142 0-90.94-40.797-90.94-90.913V91.985c0-20.072 6.552-38.657 17.646-53.718h373.441a90.248 90.248 0 00-17.488 48.994 51.873 51.873 0 00-2.402-11.616c-6.656-20.49-25.527-35.446-48.001-36.334h-.026c-.21 0-.392-.026-.6-.026h-.914c-.026-.026-.079-.026-.13-.026H3176.847c-13.834 0-26.415 5.325-35.812 14.017-10.415 9.632-16.94 23.413-16.94 38.71v59.851c0 29.13 23.596 52.726 52.752 52.726h230.141c27.512 0 50.116-21.09 52.518-48.001a90.249 90.249 0 0019.132 51.16c-.652.809-1.305 1.618-1.957 2.401-16.68 19.942-41.737 32.627-69.693 32.627"
    fill="#7a8fc7" />
  <path
    d="M3166.36 203.39c-23.983-4.96-41.99-26.202-41.99-51.62V91.904c0-15.293 6.525-29.072 16.937-38.701 9.395-8.69 21.974-14.014 35.805-14.014h181.424c17.433.13 32.856 8.69 42.355 21.817h-191.054c-29.124 0-52.741 23.617-52.741 52.715v59.866a52.312 52.312 0 009.264 29.802"
    fill="#e0d8db" />
  <path
    d="M3141.046 53.333c9.421-8.69 22-14.014 35.831-14.014h230.147-49.088.365-181.424c-13.831 0-26.41 5.324-35.83 14.014m268.09-13.962h-.026.026m-.626-.026h-.026.026m-.183 0h-.052.052m-.208-.026h-.052.052m-.444 0h-.052.052m-.183 0h-.078.078m-.208 0h-.079.079"
    fill="#aec2e3" />
  <path
    d="M3731.372 204.685h-181.057c-25.725 0-47.14-18.428-51.794-42.779 3.41 17.767 15.758 32.388 32.203 38.972-7.06-8.963-11.316-20.253-11.316-32.547v-59.859c0-29.11 23.61-52.72 52.72-52.72h197.422c9.016 9.465 14.542 22.262 14.542 36.354v59.859c0 29.11-23.584 52.72-52.72 52.72M3498.521 161.8c-.027-.026-.027-.052-.027-.079 0 .027 0 .053.027.08"
    fill="#e0bbb6" />
  <path
    d="M3780.495 242.9H3550.34c-27.972 0-53.013-12.694-69.689-32.625a84.415 84.415 0 01-1.963-2.394 90.35 90.35 0 01-19.124-51.157 55.26 55.26 0 00.188-4.734V92.145a55.26 55.26 0 00-.188-4.734c.941-18.263 7.29-35.127 17.483-49.006h376.741c11.082 15.063 17.618 33.648 17.618 53.74v59.845c0 50.135-40.776 90.91-90.911 90.91m0-38.192a53.01 53.01 0 0016.38-2.583c21.114-6.912 36.337-26.735 36.337-50.135V92.145c0-28.806-23.05-52.18-51.722-52.717h-231.15c-29.129 0-52.717 23.588-52.717 52.717v59.845c0 3.335.296 6.59.914 9.764v.08c0 .027.027.054.027.081 4.653 24.368 26.063 42.793 51.776 42.793h230.155"
    fill="#7a8fc7" />
  <path
    d="M3530.878 200.768c-16.447-6.595-28.795-21.202-32.184-38.989 0-.026-.027-.052-.027-.079v-.078a52.226 52.226 0 01-.92-9.774V92c0-29.11 23.594-52.73 52.73-52.73h181.44c14.87.106 28.295 6.359 37.806 16.369H3572.31c-29.137 0-52.756 23.619-52.756 52.729v59.85c0 12.295 4.256 23.592 11.324 32.55"
    fill="#e0d8db" />
  <path
    d="M3498.49 161.892v-.08.08m-.026-.159a54.385 54.385 0 01-.896-9.773V92.105c0-29.111 23.605-52.716 52.716-52.716h230.173-49.106.369-181.436c-29.111 0-52.716 23.605-52.716 52.716v59.855c0 3.345.316 6.586.896 9.773M3781.432 39.39h-.026.026m-.184 0h-.053.053m-.185 0h-.053.053m-.184 0h-.053.053m-.185 0h-.052.052"
    fill="#aec2e3" />
  <path
    d="M3407.014 204.695h-49.102c29.117 0 52.728-23.612 52.728-52.728v-59.85c0-11.532-3.705-22.23-10.018-30.891h39.109c3.678 0 7.279.365 10.749 1.096-7.566-11.037-19.203-19.02-32.743-21.838 18.602 3.862 33.604 17.48 39.396 35.274a52.075 52.075 0 012.4 11.636 94.225 94.225 0 00-.13 4.722v59.85c0 1.592.052 3.158.13 4.723-2.4 26.925-24.994 48.006-52.52 48.006m10.672-164.21c-.027-.027-.079-.027-.105-.027.026 0 .078 0 .105.026"
    fill="#c2aebb" />
  <path
    d="M3407.232 204.433h-49.087 49.087c27.532 0 50.132-21.086 52.533-47.992-2.4 26.906-25 47.992-52.533 47.992m50.132-128.918c-5.793-17.798-20.799-31.446-39.406-35.282-.026 0-.052 0-.052-.026h-.104a49.926 49.926 0 00-8.456-1.018c22.496.887 41.364 15.84 48.018 36.326M3409.32 39.19c-.183-.026-.391-.026-.6-.026.209 0 .417 0 .6.026m-.626-.026h-.157.157m-.209 0c-.052 0-.104-.026-.157-.026.053 0 .105.026.157.026m-.209-.026h-.391.391m-.443 0h-.13.13m-.21 0h-.13.13m-.208 0h-.183.183"
    fill="#7a8fc7" />
  <path
    d="M3450.553 62.206a53.847 53.847 0 00-10.752-1.096h-39.093c-9.499-13.127-24.922-21.686-42.355-21.817h48.723c3.627 0 7.176.366 10.569 1.07h.104c0 .026.053.026.053.026 13.544 2.793 25.183 10.804 32.75 21.817"
    fill="#c2c2d5" />
  <path
    d="M3417.932 40.285c-.026 0-.052 0-.052-.026 0 .026.026.026.052.026m-.157-.026a52.038 52.038 0 00-10.569-1.07h-49.088H3408.302c.053 0 .105.026.157.026h.235c.209 0 .417 0 .6.026h.026c2.897.104 5.715.444 8.455 1.018"
    fill="#9eb2db" />
  <path
    d="M3459.73 156.678a96.131 96.131 0 01-.13-4.722v-59.86c0-1.574.052-3.148.13-4.722.128 1.548.206 3.148.206 4.721v59.861a56.8 56.8 0 01-.207 4.722"
    fill="#7a8fc7" />
  <path
    d="M3780.365 204.649h-49.111c29.141 0 52.737-23.623 52.737-52.738v-59.83c0-14.103-5.545-26.901-14.557-36.366h32.74c6.933 0 13.518 1.36 19.597 3.786-8.478-10.771-21.063-18.184-35.38-19.81 26.262 2.986 46.685 25.302 46.685 52.39v59.83c0 23.41-15.25 43.246-36.34 50.125a52.756 52.756 0 01-16.37 2.613m5.972-164.958c-.054-.027-.08-.027-.107-.027.027 0 .053 0 .107.027"
    fill="#c2aebb" />
  <path
    d="M3780.365 204.649h-49.111 49.111m16.37-2.613c21.09-6.879 36.341-26.715 36.341-50.125v-59.83c0-27.088-20.423-49.404-46.685-52.39h-.053c-.054-.027-.08-.027-.107-.027a49.415 49.415 0 00-4.88-.32c28.662.534 51.725 23.943 51.725 52.738v59.83c0 23.409-15.25 43.245-36.34 50.124m-15.41-162.691h-.16.16m-.214 0h-.134.134m-.187 0h-.133.133m-.186 0h-.134.134m-.187 0h-.187.187"
    fill="#7a8fc7" />
  <path
    d="M3821.855 59.447c-6.063-2.42-12.658-3.803-19.599-3.803h-32.735c-9.52-9.998-22.923-16.248-37.789-16.354h48.718c1.968 0 3.936.106 5.85.319.054 0 .08 0 .107.027h.053c14.334 1.622 26.912 9.041 35.395 19.811"
    fill="#c2c2d5" />
  <path
    d="M3786.648 39.498h-.053.053m-.158 0a53.696 53.696 0 00-5.856-.343h-49.114H3781.189c0 .026.026.026.053.026h.369c1.635.026 3.27.132 4.88.317"
    fill="#9eb2db" />
  <path
    d="M3936.756 38.417h-927.241c-10.528 0-19.109-8.553-19.109-19.08 0-10.556 8.581-19.082 19.109-19.082h927.24c10.528 0 19.082 8.526 19.082 19.081 0 10.528-8.554 19.081-19.081 19.081M4045.947 38.178h-49.064c-10.56 0-19.097-8.537-19.097-19.097 0-10.532 8.538-19.07 19.097-19.07h49.064c10.56 0 19.098 8.538 19.098 19.07 0 10.56-8.538 19.097-19.098 19.097"
    fill="#7a8fc7" />
  <path
    d="M724.127 724.587h-187.92c-29.459 0-53.465-23.355-54.525-52.56.922 25.442 19.237 46.411 43.4 51.413-6.027-8.787-9.572-19.386-9.572-30.857v-61.921c0-30.123 24.429-54.556 54.56-54.556h197.723a54.307 54.307 0 0110.354 31.98v61.945c0 29.939-24.136 54.258-54.02 54.556m91.025-18.308c8.585-9.636 13.797-22.346 13.797-36.248v-61.944c0-29.412-23.263-53.363-52.385-54.51h-.005c-.211-.023-.427-.023-.638-.023h-.22c29.524.688 53.248 24.846 53.248 54.533v61.944c0 13.902-5.212 26.612-13.797 36.248M481.69 672.004l-.005-.115.005.115m-.005-.161l-.004-.115.004.115m-.007-.16l-.002-.115.002.114m-.002-.16c-.002-.046-.005-.069-.005-.115 0 .046.003.069.005.115m-.005-.138l-.009-.413.01.413m-.01-.436l-.002-.114.002.114m-.002-.183c0-.046 0-.07-.002-.092.002.023.002.069.002.092m-.002-.16c0-.047-.003-.07-.003-.093 0 .023.003.046.003.092m-.003-.16v-.092.091m0-.183v-.069.069m0-.23v-61.943 61.944m.062-64.582c.003-.07.005-.138.01-.207-.005.069-.007.138-.01.207m.067-1.17c.023-.299.043-.597.071-.895-.028.298-.048.596-.071.895m.071-.918c2.393-27.92 25.817-49.83 54.361-49.83h238.389-238.391c-28.545 0-51.968 21.91-54.361 49.83m293.842-49.807h-.014c-.057 0-.112-.023-.17-.023h-.025c.07 0 .14.023.209.023m-.211-.023H775.06h.422m-.466 0h-.16.16m-.213 0h-.158.158"
    fill="#e0bbb6" />
  <path
    d="M652.762 762.746H536.22c-51.138 0-92.74-41.6-92.74-92.738v-61.94c0-23.444 8.75-44.91 23.154-61.251h377.364c14.4 16.34 23.147 37.807 23.147 61.25v61.94c0 21.03-7.026 40.429-18.867 56.011H726.64c-30.115 0-56.92 14.411-73.873 36.728m71.38-38.176h-.543 50.8c16.215 0 30.775-7.079 40.77-18.294 8.585-9.653 13.798-22.363 13.798-36.268v-61.94c0-29.695-23.726-53.85-53.248-54.54h-.016c-.07 0-.14-.023-.21-.023H536.228c-28.543 0-51.97 21.903-54.36 49.85a54.162 54.162 0 00-.129 1.862l-.011.207c-.012.276-.023.529-.032.805-.021.597-.03 1.218-.03 1.838v62.263l.002.091v.07l.002.091v.161a.691.691 0 01.003.07v.114l.002.023c.002.138.004.299.007.414v.023c.002.046.002.092.004.115 0 .023 0 .023.003.046 0 .046 0 .069.002.115v.046c.002.045.005.068.005.114l.002.046.002.115c0 .023.002.023.002.023 1.062 29.212 25.07 52.563 54.526 52.563H724.15"
    fill="#7a8fc7" />
  <path
    d="M525.081 723.44c-24.162-5.002-42.477-25.97-43.4-51.413l-.001-.023-.005-.115v-.046l-.005-.115-.002-.046-.002-.114v-.046c-.002-.046-.005-.069-.005-.115v-.023c-.002-.115-.007-.275-.009-.413v-.023l-.002-.114v-.07c0-.022 0-.068-.003-.091v-.069l-.002-.092V608.087a53.437 53.437 0 01.062-2.638c.002-.07.005-.138.01-.207.015-.321.036-.642.057-.963.023-.299.043-.597.07-.895v-.023c2.394-27.92 25.818-49.83 54.362-49.83h238.185-50.798c18.186 0 34.296 8.901 44.209 22.575H570.08c-30.132 0-54.56 24.433-54.56 54.556v61.92c0 11.472 3.544 22.07 9.57 30.858m251.492-169.864h-.005.005m-.643-.022h-.032.032m-.201 0h-.049.049m-.218-.023h-.037.037m-.443 0h-.06.06m-.207 0h-.064.064m-.21 0h-.058H774.659"
    fill="#e0d8db" />
  <path
    d="M481.698 671.82s-.002 0-.002-.023c0 .023.002.023.002.023m-.007-.138v-.046.046m-.005-.16l-.002-.046.002.046m-.004-.16v-.047.046m-.005-.16v-.023.023m-.009-.436v-.023.023m-.002-.138v-.069.069m-.002-.16v-.07.07m-.003-.161v-.069.069m0-.16v-.093.092m0-.16v-.16.16M481.732 605.035c.016-.32.037-.642.058-.963-.02.321-.042.642-.058.964m.129-1.859v-.023.023m293.865-49.83h-.016.016m-.225-.023h-.002.002m-.424 0h-.044.044m-.204 0h-.053.053m-.211 0h-.049.049"
    fill="#aec2e3" />
  <path
    d="M774.393 724.587h-50.257c29.885-.298 54.02-24.617 54.02-54.556v-61.944a54.307 54.307 0 00-10.354-31.981h40.456c3.813 0 7.532.39 11.125 1.147-9.448-13.766-25.03-22.988-42.81-23.677 29.122 1.148 52.386 25.1 52.386 54.51v61.945c0 13.902-5.213 26.612-13.798 36.248-9.996 11.242-24.555 18.308-40.768 18.308m2.175-171.01c-.211-.023-.424-.023-.638-.023.211 0 .427 0 .638.022m-.67-.022h-.17.17m-.218 0c-.057 0-.114-.023-.17-.023.058 0 .113.023.17.023m-.206-.023h-.406.406m-.466 0h-.147.147m-.211 0h-.147.147m-.204 0h-.202.202"
    fill="#c2aebb" />
  <path
    d="M774.376 724.484h-50.798H774.376c16.213 0 30.773-7.063 40.768-18.286-9.995 11.223-24.555 18.286-40.768 18.286"
    fill="#7a8fc7" />
  <path
    d="M819.383 577.07a53.888 53.888 0 00-11.125-1.148h-40.456c-9.913-13.673-26.023-22.575-44.21-22.575h51.918c.056 0 .113.023.17.023h.25c.214 0 .427 0 .638.023h.005c17.78.688 33.362 9.91 42.81 23.676"
    fill="#c2c2d5" />
  <path
    d="M914 935.282H726.63c-23.644 0-43.775-15.043-51.348-36.077 6.94 19.246 24.413 33.491 45.47 35.733-9.164-9.763-14.82-22.845-14.82-37.285v-61.938c0-30.15 24.431-54.569 54.562-54.569H953.52c9.319 9.806 15.051 23.039 15.051 37.63v61.938c0 30.129-24.44 54.568-54.57 54.568m65.439-2.004c18.372-5.108 32.838-19.569 37.945-37.93-5.107 18.361-19.573 32.822-37.945 37.93m-304.156-34.094c-.01-.022-.022-.065-.035-.087.011.022.024.065.035.087m-.06-.173c-.007 0-.013-.021-.02-.043.007.022.013.043.02.043m-.06-.172h-.005.004m342.237-3.513c0-.022 0-.022.013-.022-.013 0-.013 0-.013.022m-.64-93.318"
    fill="#e0bbb6" />
  <path
    d="M964.777 973.28H726.619c-51.137 0-92.74-41.578-92.74-92.72v-61.93c0-21.03 7.034-40.44 18.868-56 16.953-22.321 43.759-36.742 73.872-36.742h238.158c51.146 0 92.744 41.6 92.744 92.742v61.93c0 51.142-41.598 92.72-92.744 92.72m-50.796-38.165h50.811c5.053 0 9.946-.7 14.599-1.97.013-.02.013-.02.026-.02 18.373-5.1 32.838-19.565 37.946-37.947 0-.022 0-.022.013-.022a54.845 54.845 0 001.974-14.596v-61.952a54.37 54.37 0 00-2.628-16.74 54.552 54.552 0 00-13.358-21.819c-9.668-9.694-22.96-15.734-37.666-15.975h-.186c-.041 0-.094 0-.146-.021H726.612c-30.133 0-54.561 24.421-54.561 54.555v61.952a54.525 54.525 0 003.13 18.25l.019.066c.009.022.017.022.026.066.011.022.022.066.035.088 0 0 .002 0 .004.022 7.574 21.03 27.705 36.063 51.35 36.063h187.366"
    fill="#7a8fc7" />
  <path
    d="M720.788 934.849c-21.057-2.252-38.531-16.476-45.472-35.723 0-.021-.002-.021-.005-.043a.284.284 0 01-.034-.087l-.026-.065-.02-.064c-.013-.022-.026-.065-.04-.109l-.005-.021a54.462 54.462 0 01-3.083-18.122v-61.919c0-30.158 24.426-54.58 54.565-54.58h187.76c15.4.108 29.28 6.582 39.133 16.93H760.533c-30.133 0-54.563 24.422-54.563 54.58v61.92c0 14.44 5.653 27.539 14.818 37.303"
    fill="#e0d8db" />
  <path
    d="M675.3 899.126l-.004-.043c.002.022.005.022.005.043m-.04-.13l-.025-.065.026.065m-.046-.13c-.013-.021-.026-.064-.04-.108.014.044.027.087.04.109m-.045-.13a54.462 54.462 0 01-3.083-18.122v-61.94c0-30.137 24.428-54.559 54.562-54.559h238.195-50.813.388-187.76c-30.14 0-54.566 24.422-54.566 54.58v61.92a54.462 54.462 0 003.083 18.12m290.407-134.598h-.027.026m-.173-.022h-.041.041m-.173 0h-.041.04m-.185 0h-.041.04"
    fill="#aec2e3" />
  <path
    d="M964.845 935.056h-50.799c30.133 0 54.572-24.42 54.572-54.555v-61.959c0-14.591-5.732-27.819-15.052-37.626h45.16c1.987 0 3.933.13 5.866.325-8.852-9.439-20.986-15.738-34.612-17.016 13.026 1.213 24.719 6.993 33.452 15.739a54.759 54.759 0 0113.361 21.822 54.456 54.456 0 012.626 16.778V880.5c0 5.044-.692 9.937-1.972 14.591-.015 0-.015 0-.015.022-5.107 18.38-19.573 32.841-37.946 37.95-.013 0-.013 0-.026.022a55.115 55.115 0 01-14.615 1.97m5.068-170.83h-.013.013"
    fill="#c2aebb" />
  <path
    d="M964.85 935.066h-50.813 50.8a55.114 55.114 0 00.012 0m14.601-1.97h.026-.026m37.972-37.953v-.022.022m.013-.022a55.027 55.027 0 001.975-14.614v-61.92a54.46 54.46 0 000-.02v61.94c0 5.066-.695 9.96-1.975 14.614m-14.012-115.135c-8.733-8.747-20.426-14.528-33.453-15.74h-.08a51.804 51.804 0 00-4.133-.216c14.706.238 28 6.278 37.666 15.956m-37.666-15.956h-.16.16m-.187 0c-.04 0-.095 0-.147-.022a.374.374 0 00.147.022m-.188-.022h-.132.132m-.173 0h-.145.145m-.186 0h-.174.174"
    fill="#7a8fc7" />
  <path
    d="M1004.577 781.35a52.534 52.534 0 00-5.865-.347h-45.16c-9.853-10.349-23.732-16.822-39.132-16.93h50.412c1.706 0 3.4.086 5.053.238h.08c13.627 1.277 25.76 7.6 34.612 17.039"
    fill="#c2c2d5" />
  <path
    d="M969.959 764.246h-.067.067m-.08 0a55.48 55.48 0 00-5.053-.238h-50.8H965.412a.374.374 0 00.148.022h.186c1.4.021 2.773.086 4.133.216"
    fill="#9eb2db" />
  <path
    d="M921.949 546.632h-558.82c-10.912 0-19.756-8.849-19.756-19.742 0-10.916 8.844-19.765 19.756-19.765h558.82c10.907 0 19.746 8.849 19.746 19.765 0 10.893-8.84 19.742-19.746 19.742M1102.578 546.632h-84.68c-10.907 0-19.747-8.849-19.747-19.742 0-10.916 8.84-19.765 19.747-19.765h84.68c10.907 0 19.747 8.849 19.747 19.765 0 10.893-8.84 19.742-19.747 19.742"
    fill="#7a8fc7" /></svg>
